<svg width="40" height="64" viewBox="0 0 40 64" fill="none" xmlns="http://www.w3.org/2000/svg"><path d="M32.263 0H7.737A7.737 7.737 0 0 0 0 7.737v24.526A7.737 7.737 0 0 0 7.737 40h24.526A7.737 7.737 0 0 0 40 32.263V7.737A7.737 7.737 0 0 0 32.263 0z" fill="#69F"/><path d="M11.924 39.288c.07-.552.482-1.025.963-.946.48.078.893.552.824 1.103l-1.787 21.838h3.85c.48 0 .893.473.893 1.025 0 .552-.413 1.025-.894 1.025H10l1.993-24.124-.069.079zm8.815-1.73a1.097 1.097 0 0 1 1.203-.883c.6.074 1.116.515 1.03 1.03L20.74 58.087h4.81c.602 0 1.118.442 1.118.957 0 .515-.516.956-1.117.956h-7.217l2.492-22.516-.086.074z" fill="#69F"/><path d="M21.5 9.667a1.5 1.5 0 1 0 0-3 1.5 1.5 0 0 0 0 3zm10 0a1.5 1.5 0 1 0 0-3 1.5 1.5 0 0 0 0 3z" fill="#fff"/></svg>