<svg width="312" height="241" viewBox="0 0 312 241" fill="none" xmlns="http://www.w3.org/2000/svg"><path d="M195.232 46.344c1.601-.915 4.002-1.03 5.375-.229l11.006 6.347c1.372.8 1.201 2.173-.372 3.088l-10.234 5.917c-1.601.915-4.003 1.03-5.375.23l-11.006-6.348c-1.373-.8-1.201-2.172.371-3.087l10.235-5.918z" fill="#E1E4F6"/><path d="M183.682 52.491h28.817l-.028 1.515h-28.789v-1.515z" fill="#D8D9DD"/><path d="M183.682 52.491h28.817l-.028 1.515h-28.789v-1.515z" fill="#E1E4F6"/><path d="M183.682 52.491h28.817l-.028 1.515h-28.789v-1.515z" fill="url(#a)"/><path d="M195.232 45.029c1.601-.915 4.002-1.03 5.375-.229l11.006 6.347c1.372.8 1.201 2.172-.372 3.087l-10.234 5.918c-1.601.915-4.003 1.03-5.375.229l-11.006-6.347c-1.373-.8-1.201-2.173.371-3.087l10.235-5.918z" fill="#fff"/><path d="M194.203 49.89c-.429-.258-1.115-.258-1.544 0-.429.257-.429.657 0 .886.429.257 1.115.257 1.544 0 .429-.23.429-.63 0-.887z" fill="#EBEAF4"/><path d="M194.403 49.89c-.429-.258-1.115-.258-1.544 0-.429.257-.429.657 0 .886.429.257 1.115.257 1.544 0 .429-.23.429-.63 0-.887z" fill="#F5AC0E"/><path d="M194.717 50.004h-2.172v.343h2.172v-.343z" fill="#F5AC0E"/><path d="M194.403 49.547c-.429-.258-1.115-.258-1.544 0-.429.257-.429.657 0 .886.429.257 1.115.257 1.544 0 .429-.258.429-.658 0-.886z" fill="#F3C864"/><path d="M194.117 49.69c-.257-.144-.715-.144-.972 0-.257.142-.257.4 0 .571.257.171.715.143.972 0s.257-.4 0-.572z" fill="#F6B92B"/><path d="M194.403 49.547c-.429-.258-1.115-.258-1.544 0-.429.257-.429.657 0 .886.429.257 1.115.257 1.544 0 .429-.258.429-.658 0-.886z" fill="url(#b)"/><path d="M203.866 53.664l-7.119-4.117-5.432 3.116c-.657.372-.657 1 0 1.4l4.66 2.688c.658.4 1.773.4 2.43 0l5.461-3.087z" fill="#D7D4E8" fill-opacity=".5"/><path d="M197.833 46.03c0-1.344-.943-1.888-2.087-1.202-1.172.658-2.087 2.288-2.087 3.631v4.146l4.203-2.43-.029-4.146z" fill="#BE7C7C"/><path d="M197.233 44.687l5.975 3.459-3.574 7.947-6.003-3.459 3.602-7.947z" fill="#BE7C7C"/><path d="M193.659 52.233l6.004 3.46v.371l-6.004-3.459v-.372z" fill="#C6C3DB"/><path d="M203.237 48.147l-5.975-3.46c-.372-.228-.915-.2-1.487.144-1.172.657-2.087 2.287-2.087 3.63v4.146l6.004 3.46 4.202-2.43v-4.118c-.028-.686-.286-1.172-.657-1.372z" fill="url(#c)"/><path d="M203.866 49.519c0-1.344-.944-1.887-2.087-1.201-1.173.657-2.087 2.287-2.087 3.63v4.146l4.202-2.43-.028-4.145z" fill="#D7D4E8"/><path d="M203.609 49.776c0-1.172-.83-1.658-1.83-1.058-1.029.6-1.83 2.03-1.83 3.202v3.602l3.688-2.115v-3.631h-.028z" fill="#D6A0A0"/><path d="M203.866 50.089l-4.203 2.43v.114l4.203-2.43v-.114z" fill="#A06060"/><path d="M201.95 51.205l-.372.229v.114l.372-.229v-.114z" fill="#A06060"/><path d="M203.866 50.089l-.258.143v.114l.258-.143v-.114z" fill="#8D89AB"/><path d="M203.237 48.146l-.658-.4c-.372-.229-.915-.2-1.487.143-1.172.658-2.087 2.287-2.087 3.63v4.146l.687.4V51.92c0-1.344.943-2.973 2.087-3.63.543-.315 1.086-.372 1.458-.144zm-5.318-3.087l-.657-.4c-.372-.23-.915-.2-1.487.142-1.172.658-2.087 2.288-2.087 3.631v4.146l.686.4v-4.145c0-1.344.944-2.974 2.087-3.631.543-.315 1.086-.343 1.458-.143z" fill="#C6C3DB"/><path d="M203.237 48.146l-.658-.4c-.372-.229-.915-.2-1.487.143-1.172.658-2.087 2.287-2.087 3.63v4.146l.687.4V51.92c0-1.344.943-2.973 2.087-3.63.543-.315 1.086-.372 1.458-.144zm-5.318-3.087l-.657-.4c-.372-.23-.915-.2-1.487.142-1.172.658-2.087 2.288-2.087 3.631v4.146l.686.4v-4.145c0-1.344.944-2.974 2.087-3.631.543-.315 1.086-.343 1.458-.143z" fill="url(#d)"/><path d="M193.659 49.031l6.004 3.46v.114l-6.004-3.46v-.114z" fill="#A06060"/><path d="M193.659 49.031l.687.4v.115l-.687-.4v-.115zm5.318 3.089l.686.4v.114l-.686-.4v-.115z" fill="#8D89AB"/><path d="M199.92 52.377l-.257.143v.114l.257-.143v-.114z" fill="#8D89AB"/><path d="M195.889 50.09c0-.2.115-.285.258-.2l.943.544a.593.593 0 0 1 .257.486v.686c0 .2-.114.286-.257.2l-.943-.572a.594.594 0 0 1-.258-.486v-.657z" fill="#B2AECD"/><path d="M196.204 49.892c0-.286.171-.429.4-.314.229.142.4.486.4.771v1.43c0 .286-.171.429-.4.314-.229-.143-.4-.486-.4-.772v-1.429z" fill="#B2AECD"/><path d="M195.775 50.15c0-.2.114-.287.257-.2l.944.542a.593.593 0 0 1 .257.486v.686c0 .2-.114.286-.257.2l-.944-.543a.593.593 0 0 1-.257-.486v-.686z" fill="#E6E4F3"/><path d="M196.089 49.95c0-.285.172-.428.401-.314.228.143.4.486.4.772v1.43c0 .285-.172.428-.4.314-.229-.143-.401-.486-.401-.772v-1.43z" fill="#E6E4F3"/><path d="M196.261 50.663c0-.142.086-.228.2-.142.115.057.2.228.2.4v.429c0 .143-.085.228-.2.143-.114-.058-.2-.23-.2-.4v-.43z" fill="#6A6589"/><path d="M203.208 54.981c-.429-.257-1.115-.257-1.544 0-.429.257-.429.658 0 .886.429.258 1.115.258 1.544 0 .429-.257.429-.657 0-.886z" fill="#EBEAF4"/><path d="M203.408 54.981c-.429-.257-1.115-.257-1.544 0-.429.257-.429.658 0 .886.429.258 1.115.258 1.544 0 .429-.257.429-.657 0-.886z" fill="#F5AC0E"/><path d="M203.723 55.066h-2.173v.343h2.173v-.343z" fill="#F5AC0E"/><path d="M203.408 54.609c-.429-.257-1.115-.257-1.544 0-.429.257-.429.657 0 .886.429.258 1.115.258 1.544 0 .429-.257.429-.629 0-.886z" fill="#F3C864"/><path d="M203.122 54.781c-.257-.143-.715-.143-.972 0s-.257.4 0 .572c.257.143.715.143.972 0 .257-.172.257-.429 0-.572z" fill="#F6B92B"/><path d="M203.408 54.609c-.429-.257-1.115-.257-1.544 0-.429.257-.429.657 0 .886.429.258 1.115.258 1.544 0 .429-.257.429-.629 0-.886z" fill="url(#e)"/><path d="M192.802 51.863c-.314-.2-.858-.2-1.172 0-.315.2-.315.486 0 .686.314.2.858.2 1.172 0 .314-.2.314-.486 0-.686z" fill="#EBEAF4"/><path d="M192.945 51.863c-.315-.2-.858-.2-1.172 0-.315.2-.315.486 0 .686.314.2.857.2 1.172 0 .314-.2.314-.486 0-.686z" fill="#C6C3DB"/><path d="M193.174 51.947h-1.658v.258h1.658v-.258z" fill="#C6C3DB"/><path d="M192.945 51.576c-.315-.2-.858-.2-1.172 0-.315.2-.315.486 0 .686.314.2.857.2 1.172 0 .314-.172.314-.486 0-.686z" fill="#EDECF4"/><path d="M192.716 51.72a.847.847 0 0 0-.743 0c-.2.114-.2.314 0 .428.2.115.543.115.743 0 .229-.114.229-.314 0-.428z" fill="#CFCCE1"/><path d="M192.945 51.576c-.315-.2-.858-.2-1.172 0-.315.2-.315.486 0 .686.314.2.857.2 1.172 0 .314-.172.314-.486 0-.686z" fill="url(#f)"/><path d="M236.17 53.345h-33.306v116.67h33.306V53.345z" fill="url(#g)"/><path d="M236.17 64.067c.114 2.545-1.515 5.09-4.86 7.033-6.49 3.745-17.068 3.745-23.557 0-3.345-1.944-4.975-4.488-4.86-7.033.085 2.373 1.715 4.746 4.86 6.576 6.489 3.745 17.067 3.745 23.557 0 3.144-1.83 4.774-4.174 4.86-6.576zm0 25.328c.114 2.545-1.515 5.09-4.86 7.033-6.49 3.745-17.068 3.745-23.557 0-3.345-1.944-4.975-4.488-4.86-7.032.085 2.372 1.715 4.745 4.86 6.575 6.489 3.745 17.067 3.745 23.557 0 3.144-1.83 4.774-4.203 4.86-6.576zm0 25.301c.114 2.545-1.515 5.089-4.86 7.033-6.49 3.745-17.068 3.745-23.557 0-3.345-1.944-4.975-4.488-4.86-7.033.085 2.373 1.715 4.746 4.86 6.576 6.489 3.745 17.067 3.745 23.557 0 3.144-1.83 4.774-4.203 4.86-6.576zm0 25.275c.114 2.544-1.515 5.088-4.86 7.032-6.49 3.746-17.068 3.746-23.557 0-3.345-1.944-4.975-4.488-4.86-7.032.085 2.373 1.715 4.745 4.86 6.575 6.489 3.745 17.067 3.745 23.557 0 3.144-1.83 4.774-4.202 4.86-6.575z" fill="#B4B9E2"/><path d="M231.31 46.542c6.489 3.745 6.489 9.835 0 13.608-6.49 3.745-17.068 3.745-23.557 0-6.49-3.745-6.49-9.834 0-13.608 6.489-3.745 17.039-3.745 23.557 0z" fill="#fff"/><path d="M232.739 45.027c7.29 4.202 7.29 11.035 0 15.238-7.29 4.202-19.126 4.202-26.416 0-7.29-4.203-7.29-11.036 0-15.238 7.29-4.203 19.126-4.203 26.416 0z" fill="#6A6887"/><path d="M220.16 16.182h-1.286l-17.211 33.277h35.708L220.16 16.182z" fill="#6A6887"/><path d="M225.878 62.781c13.78-8.748-4.86-44.998-5.718-46.6a45348.49 45348.49 0 0 0 17.211 33.278c1.972 3.688.428 7.89-4.632 10.806-2.001 1.172-4.345 2.001-6.861 2.516z" fill="#3C3C59" fill-opacity=".25"/><path d="M219.989 16.008c.257.143.257.4 0 .543-.258.143-.687.143-.944 0-.257-.143-.257-.4 0-.543.257-.143.686-.143.944 0z" fill="#88879D"/><path d="M219.76 16.123c.114.086.114.2 0 .257-.114.086-.314.086-.457 0-.115-.086-.115-.2 0-.257.114-.086.314-.086.457 0z" fill="#fff"/><path d="M219.846 1.83h-.629v14.408h.629V1.829z" fill="#6A6887"/><path d="M219.76 1.715c.114.085.114.2 0 .257-.114.086-.314.086-.457 0-.115-.086-.115-.2 0-.257.114-.086.314-.086.457 0z" fill="#fff"/><path d="M219.846 3.001c4.574 2.116 9.52 2.573 14.637 2.287-4.746 2.144-9.577 3.46-14.637 2.945V3z" fill="#67A0FF"/><path d="M89.74 91.338c-1.259-.714-3.174-.8-4.26-.171l-8.72 5.031c-1.086.63-.943 1.744.315 2.46l8.119 4.688c1.258.714 3.173.8 4.26.171l8.719-5.031c1.086-.63.943-1.744-.314-2.46l-8.12-4.688z" fill="#CCD3F6"/><path d="M98.888 61.35l-22.87-.143v36.05l22.87.143V61.35z" fill="#CCD3F6"/><path d="M76.017 61.206c0-.4.257-.772.743-1.057l8.72-5.032c1.086-.629 3.002-.543 4.26.172l8.119 4.688c.686.4 1.029.886 1.029 1.372V97.4c0 .4-.229.771-.743 1.057l-8.72 5.032c-1.086.629-3.002.543-4.26-.172l-8.119-4.688c-.686-.4-1.029-.915-1.029-1.401V61.206z" fill="#CCD3F6"/><path d="M76.017 61.206c0-.4.257-.772.743-1.057l8.72-5.032c1.086-.629 3.002-.543 4.26.172l8.119 4.688c.686.4 1.029.886 1.029 1.372V97.4c0 .4-.229.771-.743 1.057l-8.72 5.032c-1.086.629-3.002.543-4.26-.172l-8.119-4.688c-.686-.4-1.029-.915-1.029-1.401V61.206z" fill="url(#h)"/><path d="M89.74 55.289c-1.259-.715-3.174-.8-4.26-.172l-8.72 5.032c-1.086.629-.943 1.743.315 2.458l8.119 4.689c1.258.714 3.173.8 4.26.171l8.719-5.031c1.086-.63.943-1.744-.314-2.459l-8.12-4.688z" fill="#fff"/><path d="M84.536 71.387c0-1.315-.8-2.83-1.772-3.402l-3.545-2.059c-.972-.572-1.773.029-1.773 1.344v15.466c0 1.316.8 2.83 1.773 3.402l3.545 2.059c.972.572 1.772-.029 1.772-1.344V71.387z" fill="#BEC6EA"/><path d="M84.508 87.168c-.114 1.086-.858 1.543-1.773 1.029l-3.545-2.059c-.972-.571-1.772-2.087-1.772-3.402V67.27c0-1.315.8-1.915 1.772-1.344h.029c0 .086-.029.2-.029.315v15.466c0 1.315.8 2.83 1.773 3.402l3.545 2.059z" fill="#B0BAE4"/><path d="M79.219 65.927l3.545 2.058c.972.572 1.772 2.087 1.772 3.402v7.062a3.17 3.17 0 0 1-.686.571l-3.545 2.059c-.4.228-.8.257-1.086.143v-14.98c-.029-.115 0-.2 0-.315z" fill="#E7E8FD"/><path d="M90.826 71.387c0-1.315.8-2.83 1.773-3.402l3.544-2.059c.972-.572 1.773.029 1.773 1.344v15.466c0 1.316-.8 2.83-1.772 3.402l-3.546 2.059c-.972.572-1.772-.029-1.772-1.344V71.387z" fill="#BEC6EA"/><path d="M90.826 87.168c.114 1.086.858 1.543 1.773 1.029l3.544-2.059c.972-.571 1.773-2.087 1.773-3.402V67.27c0-1.315-.8-1.915-1.772-1.344h-.03c0 .086.03.2.03.315v15.466c0 1.315-.801 2.83-1.773 3.402l-3.545 2.059z" fill="#B0BAE4"/><path d="M96.143 65.924l-3.545 2.058c-.972.572-1.772 2.087-1.772 3.402v7.062c.2.228.457.428.686.571l3.545 2.059c.4.229.8.257 1.086.143V65.924z" fill="#E7E8FD"/><path d="M87.795 83.507a6.347 6.347 0 1 0 0-12.694 6.347 6.347 0 0 0 0 12.694z" fill="#fff"/><path d="M76.017 61.206c0-.4.257-.772.743-1.057l8.72-5.032c1.086-.629 3.002-.543 4.26.172l8.119 4.688c.686.4 1.029.886 1.029 1.372v35.993c0 .4-.229.772-.743 1.058l-8.72 5.032c-1.086.629-3.002.543-4.26-.172l-8.119-4.688c-.686-.4-1.029-.915-1.029-1.401V61.206zm8.52 10.178c0-1.315-.801-2.83-1.773-3.402l-3.545-2.058c-.972-.572-1.772.028-1.772 1.343v15.467c0 1.315.8 2.83 1.772 3.402l3.545 2.058c.972.572 1.773-.029 1.773-1.344V71.384zm6.289 0c0-1.315.8-2.83 1.773-3.402l3.544-2.058c.972-.572 1.773.028 1.773 1.343v15.467c0 1.315-.8 2.83-1.772 3.402l-3.546 2.058c-.972.572-1.772-.029-1.772-1.344V71.384z" fill="url(#i)"/><path d="M76.017 61.206c0-.4.257-.772.743-1.057l8.72-5.032c1.086-.629 3.002-.543 4.26.172l8.119 4.688c.686.4 1.029.886 1.029 1.372v35.993c0 .4-.229.772-.743 1.058l-8.72 5.032c-1.086.629-3.002.543-4.26-.172l-8.119-4.688c-.686-.4-1.029-.915-1.029-1.401V61.206zm8.52 10.178c0-1.315-.801-2.83-1.773-3.402l-3.545-2.058c-.972-.572-1.772.028-1.772 1.343v15.467c0 1.315.8 2.83 1.772 3.402l3.545 2.058c.972.572 1.773-.029 1.773-1.344V71.384zm6.289 0c0-1.315.8-2.83 1.773-3.402l3.544-2.058c.972-.572 1.773.028 1.773 1.343v15.467c0 1.315-.8 2.83-1.772 3.402l-3.546 2.058c-.972.572-1.772-.029-1.772-1.344V71.384z" fill="url(#j)"/><path d="M89.74 55.289c-1.259-.715-3.174-.8-4.26-.172l-8.72 5.032c-1.086.629-.943 1.743.315 2.458l8.119 4.689c1.258.714 3.173.8 4.26.171l8.719-5.031c1.086-.63.943-1.744-.314-2.459l-8.12-4.688z" fill="#fff"/><path d="M89.454 56.09c-1.087-.629-2.745-.686-3.688-.143l-7.548 4.374c-.943.544-.829 1.516.257 2.145l7.033 4.06c1.087.628 2.745.685 3.688.142l7.548-4.374c.943-.543.829-1.486-.258-2.144l-7.032-4.06z" stroke="#BEC6EA" stroke-width=".45" stroke-miterlimit="1.414" stroke-linejoin="round"/><path d="M83.307 58.95c2.259-1.315 5.947-1.315 8.234 0 2.258 1.315 2.258 3.43 0 4.746-2.259 1.315-5.947 1.315-8.234 0-2.258-1.315-2.258-3.43 0-4.746z" fill="#CDD4F6"/><path d="M58.435 91.055L47.372 97.43l11.063 6.375L69.5 97.43l-11.064-6.375z" fill="#fff"/><path d="M69.499 132.251V97.43l-11.064 6.404v34.82l11.064-6.403z" fill="url(#k)"/><path d="M58.435 91.055L47.372 97.43v34.821l11.063 6.375 11.064-6.375V97.43l-11.064-6.375z" fill="url(#l)"/><path d="M47.371 97.43v-5.403c0-4.06 2.487-8.805 5.518-10.549 1.372-.8 2.658-.858 3.63-.286l11.064 6.376c1.172.686 1.916 2.258 1.916 4.46v5.402l-11.064 6.404L47.37 97.43z" fill="#E1E4F6"/><path d="M47.371 97.43v-5.403c0-4.06 2.487-8.805 5.518-10.549 1.372-.8 2.658-.858 3.63-.286l11.064 6.376c1.172.686 1.916 2.258 1.916 4.46v5.402l-11.064 6.404L47.37 97.43z" fill="url(#m)"/><path d="M58.435 98.429c0-4.06 2.487-8.805 5.518-10.55 3.059-1.772 5.517.115 5.517 4.175v5.403l-11.035 6.375v-5.403z" fill="#CBD1EC"/><path d="M213.77 97.002H84.006v83.393H213.77V97.002z" fill="url(#n)"/><path d="M161.881 63.41c-7.147-4.117-17.982-4.574-24.186-1L88.18 90.997c-6.204 3.574-5.403 9.834 1.744 13.951l46.056 26.588c7.147 4.116 17.982 4.574 24.186 1l49.487-28.588c6.204-3.574 5.403-9.835-1.744-13.952L161.881 63.41z" fill="#fff"/><path d="M128.884 84.958c11.636-6.719 30.533-6.719 42.168 0 11.636 6.718 11.636 17.639 0 24.357-11.635 6.718-30.532 6.718-42.168 0s-11.636-17.639 0-24.357zm4.431 2.573c9.206-5.318 24.129-5.318 33.306 0 9.205 5.317 9.205 13.922 0 19.24-9.206 5.317-24.129 5.317-33.306 0-9.205-5.318-9.205-13.951 0-19.24z" fill="#E1E4F6"/><path d="M128.884 84.958c11.636-6.719 30.533-6.719 42.168 0 11.636 6.718 11.636 17.639 0 24.357-11.635 6.718-30.532 6.718-42.168 0s-11.636-17.639 0-24.357zm4.431 2.573c9.206-5.318 24.129-5.318 33.306 0 9.205 5.317 9.205 13.922 0 19.24-9.206 5.317-24.129 5.317-33.306 0-9.205-5.318-9.205-13.951 0-19.24z" fill="url(#o)"/><path d="M173.511 97.05h.057v10.607a29.41 29.41 0 0 1-2.516 1.658c-11.635 6.719-30.532 6.719-42.168 0a27.967 27.967 0 0 1-2.459-1.601V97.222c.029 3.46 2.345 6.89 6.89 9.52 9.206 5.318 24.129 5.318 33.306 0 4.631-2.658 6.947-6.175 6.89-9.691z" fill="#C7CDE9"/><path d="M173.511 97.05h.057v10.607a29.41 29.41 0 0 1-2.516 1.658c-11.635 6.719-30.532 6.719-42.168 0a27.967 27.967 0 0 1-2.459-1.601V97.222c.029 3.46 2.345 6.89 6.89 9.52 9.206 5.318 24.129 5.318 33.306 0 4.631-2.658 6.947-6.175 6.89-9.691z" fill="url(#p)"/><path d="M282.741 76.187c4.717 2.716 4.717 7.148 0 9.863-4.717 2.716-12.35 2.716-17.067 0-4.718-2.715-4.718-7.147 0-9.863 4.717-2.716 12.378-2.716 17.067 0z" fill="#CCD3F6"/><path d="M286.257 79.762h-24.129v1.372h24.129v-1.372z" fill="#CCD3F6"/><path d="M282.741 74.846c4.717 2.715 4.717 7.147 0 9.863-4.717 2.715-12.35 2.715-17.067 0-4.718-2.716-4.718-7.148 0-9.864 4.717-2.715 12.378-2.715 17.067 0z" fill="#fff"/><path d="M274.622 79.076c-3.117-1.801-5.918-3.116-6.233-2.916-.314.2 1.944 1.8 5.061 3.602 3.116 1.801 5.917 3.116 6.232 2.916.343-.2-1.916-1.801-5.06-3.602z" fill="#E3E9F3"/><path d="M274.193 60.78c-3.574-2.06-6.461-.373-6.461 3.716 0 4.116 2.887 9.12 6.461 11.178 3.545 2.058 6.461.371 6.461-3.717-.029-4.117-2.916-9.12-6.461-11.178zm0 5.631c-.858-.486-1.573-.086-1.573.915 0 1 .715 2.201 1.573 2.716.857.486 1.572.085 1.572-.915-.029-1-.715-2.201-1.572-2.716z" fill="#9FB5D8"/><path d="M273.993 60.893c-3.574-2.058-6.461-.371-6.461 3.717 0 4.117 2.887 9.12 6.461 11.178 3.545 2.058 6.461.372 6.461-3.717 0-4.116-2.888-9.12-6.461-11.178zm0 5.632c-.858-.486-1.573-.086-1.573.915 0 1 .715 2.201 1.573 2.716.857.486 1.572.086 1.572-.915 0-1-.715-2.201-1.572-2.716z" fill="#CCD9F6"/><path d="M273.449 69.727L272.22 74.5c.572.514 1.144.943 1.772 1.315.744.429 1.459.686 2.145.8l-1.601-6.26a1.285 1.285 0 0 1-.515-.2c-.2-.115-.4-.258-.572-.43zm2.316-7.548c-.572-.515-1.144-.943-1.773-1.286-.457-.258-.914-.486-1.372-.63l.886 6.061c.143.029.315.086.486.2.143.086.286.2.429.315l1.344-4.66z" fill="#F4F7FB"/><path d="M273.993 65.325c-1.43-.83-2.602-.143-2.602 1.486 0 1.658 1.172 3.66 2.602 4.489 1.429.829 2.601.143 2.601-1.487 0-1.63-1.172-3.66-2.601-4.488zm0 1.229c-.858-.486-1.544-.086-1.544.886 0 1 .686 2.201 1.544 2.688.858.486 1.544.085 1.544-.887.028-1-.686-2.201-1.544-2.687z" fill="#B5C8E7"/><path d="M34.078 22.84c3.344 1.916 3.344 5.061 0 6.977-3.345 1.915-8.749 1.915-12.093 0-3.345-1.916-3.345-5.06 0-6.976 3.345-1.916 8.748-1.916 12.093 0z" fill="#CCD3F6"/><path d="M36.593 25.386H19.497v.972h17.096v-.972z" fill="#CCD3F6"/><path d="M34.078 21.898c3.344 1.916 3.344 5.06 0 6.976-3.345 1.916-8.749 1.916-12.093 0-3.345-1.915-3.345-5.06 0-6.976 3.345-1.944 8.748-1.944 12.093 0z" fill="#fff"/><path d="M266.446 114.496l-9.778 5.632v30.733l9.778 5.632 9.777-5.632v-30.733l-9.777-5.632z" fill="#E1E4F6"/><path d="M266.446 114.496l-9.778 5.632 9.778 5.632 9.777-5.632-9.777-5.632z" fill="#fff"/><path d="M276.223 150.891V120.13l-9.778 5.632v30.733l9.778-5.604z" fill="#B5BDE1" fill-opacity=".5"/><path d="M266.446 114.496l-9.778 5.632v30.733l9.778 5.632 9.777-5.632v-30.733l-9.777-5.632z" fill="url(#q)"/><path d="M256.697 120.129v-4.775c0-3.602 2.201-7.776 4.888-9.319 1.23-.715 2.345-.744 3.202-.258l9.778 5.632c1.029.601 1.686 1.973 1.686 3.945v4.775l-9.777 5.632-9.777-5.632z" fill="#E1E4F6"/><path d="M256.697 120.129v-4.775c0-3.602 2.201-7.776 4.888-9.319 1.23-.715 2.345-.744 3.202-.258l9.778 5.632c1.029.601 1.686 1.973 1.686 3.945v4.775l-9.777 5.632-9.777-5.632z" fill="url(#r)"/><path d="M266.445 121.014c0-3.602 2.202-7.776 4.889-9.32 2.687-1.544 4.889.086 4.889 3.688v4.746l-9.778 5.632v-4.746z" fill="#CBD1EC"/><path d="M193.202 119.243v46.171l-14.295 8.262v-46.171l14.295-8.262z" fill="url(#s)"/><path d="M240.802 146.745l47.6 27.474v5.975c-5.432-3.145-9.864-.6-9.864 5.689v45.856l-4.059-2.344v-45.856c0-6.29-4.431-13.951-9.863-17.096-5.432-3.145-9.863-.6-9.863 5.689v45.856l-4.06-2.344v-45.828c0-6.289-4.431-13.951-9.863-17.096-5.432-3.144-9.863-.6-9.863 5.69v45.856l-4.059-2.345v-45.856c0-6.289-4.432-13.951-9.864-17.096-5.431-3.144-9.863-.6-9.863 5.689v45.856l-4.059-2.344v-45.856c0-6.289-4.431-13.951-9.863-17.096v-5.975l47.543 27.502z" fill="#CCD2F2" fill-opacity=".666"/><path d="M254.724 154.78v63.21l-14.294 8.262v-63.21l14.294-8.262zm23.814 13.752v63.21l-14.294 8.262v-63.238l14.294-8.234zm-71.414-41.226v63.209l-14.294 8.262v-63.238l14.294-8.233z" fill="#F9FAFD"/><path d="M207.124 127.306v63.209l-14.294 8.262v-63.238l14.294-8.233z" fill="url(#t)"/><path d="M230.938 141.058v63.209l-14.294 8.262v-63.238l14.294-8.233z" fill="#F9FAFD"/><path d="M230.938 142.517v58.635l-14.294 8.262v-58.635l14.294-8.262z" fill="url(#u)"/><path d="M254.724 155.981v58.636l-14.294 8.262v-58.664l14.294-8.234z" fill="url(#v)"/><path d="M226.507 154.98l47.6 27.474 14.294-8.262-95.199-54.976-14.295 8.262 47.6 27.502z" fill="#fff"/><path d="M226.507 154.981l47.6 27.474v6.004c-5.432-3.145-9.863-.601-9.863 5.689v45.856l-4.06-2.344v-45.856c0-6.29-4.431-13.952-9.863-17.096-5.431-3.145-9.863-.601-9.863 5.689v45.856l-4.059-2.345v-45.856c0-6.289-4.431-13.951-9.863-17.096-5.432-3.144-9.863-.6-9.863 5.69v45.856l-4.06-2.345V164.33c0-6.29-4.431-13.951-9.863-17.096-5.432-3.145-9.863-.6-9.863 5.689v45.856l-4.06-2.344v-45.856c0-6.29-4.431-13.951-9.863-17.096v-5.975l47.543 27.473z" fill="#E1E4F6"/><path d="M226.507 154.981l47.6 27.474v6.004c-5.432-3.145-9.863-.601-9.863 5.689v45.856l-4.06-2.344v-45.856c0-6.29-4.431-13.952-9.863-17.096-5.431-3.145-9.863-.601-9.863 5.689v45.856l-4.059-2.345v-45.856c0-6.289-4.431-13.951-9.863-17.096-5.432-3.144-9.863-.6-9.863 5.69v45.856l-4.06-2.345V164.33c0-6.29-4.431-13.951-9.863-17.096-5.432-3.145-9.863-.6-9.863 5.689v45.856l-4.06-2.344v-45.856c0-6.29-4.431-13.951-9.863-17.096v-5.975l47.543 27.473z" fill="url(#w)"/><path d="M226.507 154.981l47.6 27.474v6.004c-5.432-3.145-9.863-.601-9.863 5.689v45.856l-4.06-2.344v-45.856c0-6.29-4.431-13.952-9.863-17.096-5.431-3.145-9.863-.601-9.863 5.689v45.856l-4.059-2.345v-45.856c0-6.289-4.431-13.951-9.863-17.096-5.432-3.144-9.863-.6-9.863 5.69v45.856l-4.06-2.345V164.33c0-6.29-4.431-13.951-9.863-17.096-5.432-3.145-9.863-.6-9.863 5.689v45.856l-4.06-2.344v-45.856c0-6.29-4.431-13.951-9.863-17.096v-5.975l47.543 27.473z" fill="url(#x)"/><path d="M301.438 181.737l-108.236-62.495-14.295 8.262 108.237 62.495 14.294-8.262z" fill="#fff"/><path d="M33.077 132.963c7.49 4.317 7.49 11.35 0 15.695-7.49 4.317-19.669 4.317-27.188 0-7.49-4.317-7.49-11.349 0-15.695 7.52-4.345 19.698-4.345 27.188 0z" fill="#CCD3F6"/><path d="M38.68 138.651H.258v2.202h38.424v-2.202z" fill="#CCD3F6"/><path d="M33.077 130.819c7.49 4.317 7.49 11.349 0 15.695-7.49 4.317-19.669 4.317-27.188 0-7.49-4.317-7.49-11.35 0-15.695 7.52-4.346 19.698-4.346 27.188 0z" fill="#fff"/><path d="M23.042 135.25c.315-.171.8-.2 1.087-.057l1.858 1.058c.286.171.229.429-.086.629l-8.662 5.003c-.315.171-.8.2-1.087.057l-1.858-1.058c-.286-.171-.229-.429.086-.629l8.662-5.003z" fill="#EDEFF8"/><path d="M10.892 125.816c-.2-.114-.257-.4-.171-.743.085-.372.343-.744.629-.915l5.003-3.345 1.915-6.461c.114-.372.372-.715.658-.886.2-.115.371-.115.514-.057l2.201 1.258a.476.476 0 0 1 .172.171l1.058 2.316 3.688-1.801c.171-.086.343-.086.457-.029l2.202 1.258a.354.354 0 0 1 .171.229c.086.257 0 .657-.229 1l-3.83 5.975 1.172 4.946c.057.286-.029.686-.286 1.001-.229.343-.544.514-.8.486l-4.29-.543-4.287 5.517c-.258.315-.572.486-.8.429-.03 0-.058-.029-.087-.029l-2.2-1.258c-.173-.085-.258-.343-.201-.657l1.115-5.975-1.544-.629c-.028 0-.028 0-.057-.029l-2.173-1.229z" fill="#F3A600"/><path d="M10.892 125.816c-.2-.114-.257-.4-.171-.743.085-.372.343-.744.629-.915l5.003-3.345 1.915-6.461c.114-.372.372-.715.658-.886.2-.115.371-.115.514-.057l2.201 1.258a.476.476 0 0 1 .172.171l1.058 2.316 3.688-1.801c.171-.086.343-.086.457-.029l2.202 1.258a.354.354 0 0 1 .171.229c.086.257 0 .657-.229 1l-3.83 5.975 1.172 4.946c.057.286-.029.686-.286 1.001-.229.343-.544.514-.8.486l-4.29-.543-4.287 5.517c-.258.315-.572.486-.8.429-.03 0-.058-.029-.087-.029l-2.2-1.258c-.173-.085-.258-.343-.201-.657l1.115-5.975-1.544-.629c-.028 0-.028 0-.057-.029l-2.173-1.229z" fill="url(#y)"/><path d="M10.892 125.816c-.2-.114-.257-.4-.171-.743.085-.372.343-.744.629-.915l5.003-3.345 1.915-6.461c.114-.372.372-.715.658-.886.2-.115.371-.115.514-.057l2.201 1.258a.476.476 0 0 1 .172.171l1.058 2.316 3.688-1.801c.171-.086.343-.086.457-.029l2.202 1.258a.354.354 0 0 1 .171.229c.086.257 0 .657-.229 1l-3.83 5.975 1.172 4.946c.057.286-.029.686-.286 1.001-.229.343-.544.514-.8.486l-4.29-.543-4.287 5.517c-.258.315-.572.486-.8.429-.03 0-.058-.029-.087-.029l-2.2-1.258c-.173-.085-.258-.343-.201-.657l1.115-5.975-1.544-.629c-.028 0-.028 0-.057-.029l-2.173-1.229z" fill="url(#z)"/><path d="M20.47 115.609c.114-.372.371-.715.657-.886.286-.172.543-.115.658.114l1.915 4.231 5.003-2.43c.286-.143.543-.057.629.2.086.258 0 .658-.229 1.001l-3.83 5.975 1.171 4.946c.058.286-.028.686-.285 1-.23.343-.544.515-.801.486l-4.288-.543-4.288 5.518c-.258.314-.572.486-.801.429-.229-.058-.343-.343-.286-.687l1.172-6.318-3.83-1.543c-.23-.086-.315-.401-.23-.744.086-.371.344-.743.63-.915l5.003-3.344 2.03-6.49z" fill="#FFCC24"/><path d="M20.47 115.609c.114-.372.371-.715.657-.886.286-.172.543-.115.658.114l1.915 4.231 5.003-2.43c.286-.143.543-.057.629.2.086.258 0 .658-.229 1.001l-3.83 5.975 1.171 4.946c.058.286-.028.686-.285 1-.23.343-.544.515-.801.486l-4.288-.543-4.288 5.518c-.258.314-.572.486-.801.429-.229-.058-.343-.343-.286-.687l1.172-6.318-3.83-1.543c-.23-.086-.315-.401-.23-.744.086-.371.344-.743.63-.915l5.003-3.344 2.03-6.49z" fill="url(#A)"/><path d="M24.207 139.085l-1.584-2.27-1.624 4.12c-.234.58-.434 1.013-.6 1.298a1.67 1.67 0 0 1-.616.64c-.277.16-.514.18-.712.06-.192-.129-.288-.348-.288-.654 0-.313.15-.848.448-1.604l1.976-5.012-1.752-2.217c-.304-.357-.456-.733-.456-1.126 0-.307.09-.625.272-.956a1.89 1.89 0 0 1 .712-.75c.256-.147.467-.17.632-.069.17.099.368.295.592.589l1.416 1.83L24 129.523c.23-.57.427-.997.592-1.282a1.76 1.76 0 0 1 .632-.649c.288-.166.526-.19.712-.072.192.108.288.319.288.633 0 .226-.04.468-.12.725-.074.248-.192.56-.352.936L24 134.052l1.976 2.733c.31.427.464.794.464 1.1 0 .313-.096.639-.288.976-.192.336-.429.586-.712.749-.25.145-.464.17-.64.074-.17-.098-.368-.298-.592-.599z" fill="#fff"/><path d="M25.537 129.597c.49-.283.912-.723 1.264-1.32.358-.6.536-1.268.536-2.005 0-.561-.141-.961-.424-1.199-.282-.246-.664-.23-1.144.047a3.109 3.109 0 0 0-.808.652 3.224 3.224 0 0 0-.496.779c-.122.274-.24.605-.352.99-.107.383-.205.742-.296 1.079-.053.184-.15.36-.288.527a1.747 1.747 0 0 1-.48.408c-.213.123-.41.12-.592-.008-.176-.139-.264-.406-.264-.8 0-.379.083-.824.248-1.335a8.92 8.92 0 0 1 .736-1.628 8.327 8.327 0 0 1 1.208-1.605 7.027 7.027 0 0 1 1.608-1.278c.518-.298.99-.472 1.416-.521.427-.057.798.007 1.112.19.315.183.552.469.712.858.16.389.24.861.24 1.415 0 .73-.117 1.425-.352 2.085-.23.65-.56 1.348-.992 2.093.416.066.766.215 1.048.446.288.227.504.54.648.939.144.391.216.863.216 1.417 0 .664-.098 1.363-.296 2.097a9.887 9.887 0 0 1-2.208 4.074 7.166 7.166 0 0 1-1.72 1.397c-.64.369-1.213.543-1.72.521-.507-.021-.925-.17-1.256-.446a2.826 2.826 0 0 1-.744-1.036c-.165-.408-.248-.776-.248-1.105 0-.423.099-.819.296-1.188.203-.379.454-.655.752-.827a.522.522 0 0 1 .432-.063c.139.036.23.126.272.269.277.854.573 1.438.888 1.753.32.304.768.29 1.344-.043.33-.19.648-.483.952-.877a5.23 5.23 0 0 0 .76-1.434c.203-.554.304-1.12.304-1.696 0-.853-.17-1.422-.512-1.707-.341-.291-.816-.262-1.424.089a6.863 6.863 0 0 0-.496.33 8.066 8.066 0 0 1-.432.293c-.293.169-.52.201-.68.097-.16-.112-.24-.347-.24-.704 0-.35.096-.687.288-1.009.192-.329.477-.603.856-.822l.328-.189z" fill="#fff"/><path d="M149.089 166.929l13.523 7.804v42.597l-13.523 7.805-13.522-7.805v-42.597l13.522-7.804z" fill="#CCD2F2"/><path d="M149.089 166.929l13.523 7.804-13.523 7.805-13.522-7.805 13.522-7.804z" fill="#fff"/><path d="M135.567 217.33v-42.597l13.522 7.805v42.597l-13.522-7.805z" fill="#DFE3F6"/><path d="M149.089 166.929l13.523 7.804v42.597l-13.523 7.805-13.522-7.805v-42.597l13.522-7.804z" fill="url(#B)"/><path d="M162.612 174.733v-6.604c0-4.975-3.03-10.778-6.776-12.922-1.686-.972-3.23-1.029-4.431-.343l-13.522 7.804c-1.43.829-2.344 2.745-2.344 5.461v6.604l13.522 7.804 13.551-7.804z" fill="#CCD2F2"/><path d="M162.612 174.733v-6.604c0-4.975-3.03-10.778-6.776-12.922-1.686-.972-3.23-1.029-4.431-.343l-13.522 7.804c-1.43.829-2.344 2.745-2.344 5.461v6.604l13.522 7.804 13.551-7.804z" fill="url(#C)"/><path d="M149.089 175.962c0-4.974-3.03-10.778-6.775-12.922-3.745-2.144-6.776.143-6.776 5.117v6.604l13.523 7.805v-6.604h.028z" fill="#DFE3F6"/><path d="M147.432 146.346c.028-.028.057-.028.085-.057.915-.457 2.716.543 3.688 3.002.086-.057.401-.229.601-.343 1-.6 2.43.372 3.23 1.687.944 1.572.944 3.602 0 5.117-.257.429-.629.772-1.086 1.058-.057.028-.086.057-.143.086l-1.944 1.115c-.801.486-1.801.743-2.687.886-1.401-1.83-3.088-4.346-3.746-6.261-.914-2.516-.943-4.546-.057-5.089.029 0 .029-.028.057-.028l2.002-1.173z" fill="#F80F70"/><path d="M147.432 146.346c.028-.028.057-.028.085-.057.915-.457 2.716.543 3.688 3.002.086-.057.401-.229.601-.343 1-.6 2.43.372 3.23 1.687.944 1.572.944 3.602 0 5.117-.257.429-.629.772-1.086 1.058-.057.028-.086.057-.143.086l-1.944 1.115c-.801.486-1.801.743-2.687.886-1.401-1.83-3.088-4.346-3.746-6.261-.914-2.516-.943-4.546-.057-5.089.029 0 .029-.028.057-.028l2.002-1.173z" fill="url(#D)"/><path d="M149.175 150.721c-.943-2.602-2.83-3.688-3.745-3.202-.943.486-.943 2.516 0 5.117.658 1.916 2.344 4.432 3.745 6.261 1.401-.2 3.088-.772 3.745-1.915.944-1.515.944-3.545 0-5.117-.943-1.573-2.801-2.659-3.745-1.144z" fill="#FD5498"/><path d="M149.175 150.721c-.943-2.602-2.83-3.688-3.745-3.202-.943.486-.943 2.516 0 5.117.658 1.916 2.344 4.432 3.745 6.261 1.401-.2 3.088-.772 3.745-1.915.944-1.515.944-3.545 0-5.117-.943-1.573-2.801-2.659-3.745-1.144z" fill="url(#E)"/><path d="M178.907 121.987l14.295-8.262 3.287 1.886v2.774l3.288 1.886v2.773l-14.294 8.263-6.576-3.803v-5.517z" fill="#CFD5F3"/><path d="M193.202 113.725l3.287 1.886-14.294 8.263-3.288-1.887 14.295-8.262z" fill="#fff"/><path d="M196.489 118.384v-2.773l-14.294 8.262v2.774l14.294-8.263z" fill="#C1C9EB"/><path d="M196.489 118.386l3.288 1.887-14.294 8.262-3.288-1.887 14.294-8.262z" fill="#fff"/><path d="M199.777 123.047v-2.774l-14.294 8.263v2.773l14.294-8.262z" fill="#C1C9EB"/><path d="M94.485 136.109c-3.373-1.944-8.462-2.144-11.378-.486L59.78 149.117c-2.916 1.687-2.545 4.631.829 6.575l21.699 12.522c3.373 1.944 8.462 2.144 11.378.486l23.328-13.465c2.916-1.687 2.545-4.632-.829-6.576l-21.699-12.55z" fill="#E1E4F6"/><path d="M118.928 149.174H57.806l.029 3.202h61.122l-.029-3.202z" fill="#D8D9DD"/><path d="M118.928 149.174H57.806l.029 3.202h61.122l-.029-3.202z" fill="#E1E4F6"/><path d="M118.928 149.174H57.806l.029 3.202h61.122l-.029-3.202z" fill="url(#F)"/><path d="M94.486 133.338c-3.373-1.945-8.462-2.145-11.378-.487L59.78 146.317c-2.916 1.686-2.545 4.631.829 6.575l21.698 12.522c3.374 1.944 8.463 2.144 11.379.486l23.328-13.465c2.916-1.687 2.544-4.632-.829-6.576l-21.699-12.521z" fill="#fff"/><path d="M96.63 143.656c.914-.514 2.372-.514 3.258 0 .915.515.915 1.373 0 1.887-.914.515-2.372.515-3.259 0-.886-.543-.886-1.372 0-1.887z" fill="#EBEAF4"/><path d="M96.229 143.656c.915-.514 2.373-.514 3.26 0 .914.515.914 1.373 0 1.887-.916.515-2.374.515-3.26 0-.886-.543-.886-1.372 0-1.887z" fill="#F5AC0E"/><path d="M100.174 143.857h-4.602v.744h4.602v-.744z" fill="#F5AC0E"/><path d="M96.229 142.886c.915-.515 2.373-.515 3.26 0 .914.515.914 1.372 0 1.887-.916.514-2.374.514-3.26 0-.886-.543-.886-1.372 0-1.887z" fill="#F3C864"/><path d="M96.83 143.228c.571-.314 1.486-.314 2.058 0 .572.315.572.858 0 1.201-.572.314-1.487.314-2.059 0-.543-.343-.543-.886 0-1.201z" fill="#F6B92B"/><path d="M96.229 142.886c.915-.515 2.373-.515 3.26 0 .914.515.914 1.372 0 1.887-.916.514-2.374.514-3.26 0-.886-.543-.886-1.372 0-1.887z" fill="url(#G)"/><path d="M76.16 151.604l15.066-8.691 11.493 6.633c1.429.829 1.401 2.144 0 2.973l-9.92 5.718c-1.43.829-3.717.829-5.147 0l-11.492-6.633z" fill="#D7D4E8" fill-opacity=".5"/><path d="M88.91 135.453c0-2.831 2.002-4.003 4.46-2.573 2.459 1.429 4.46 4.86 4.46 7.719v8.805l-8.891-5.146-.029-8.805z" fill="#BE7C7C"/><path d="M90.197 132.596l-12.694 7.318 7.576 16.839 12.751-7.376-7.633-16.781z" fill="#BE7C7C"/><path d="M97.83 148.573l-12.75 7.376v.801l12.75-7.376v-.801z" fill="#C6C3DB"/><path d="M77.504 139.911l12.693-7.319c.8-.486 1.944-.429 3.173.286 2.459 1.429 4.46 4.86 4.46 7.719v8.805l-12.75 7.376-8.892-5.146v-8.805c-.028-1.458.486-2.459 1.316-2.916z" fill="url(#H)"/><path d="M76.16 142.827c0-2.831 2.001-4.003 4.46-2.573 2.458 1.429 4.46 4.86 4.46 7.719v8.805l-8.891-5.146v-8.805h-.03z" fill="#D7D4E8"/><path d="M76.703 143.342c0-2.487 1.744-3.488 3.917-2.258 2.144 1.258 3.917 4.288 3.917 6.775v7.719l-7.805-4.517v-7.719h-.029z" fill="#D6A0A0"/><path d="M76.16 144.059l8.891 5.146v.257l-8.891-5.146v-.257z" fill="#A06060"/><path d="M80.22 146.4l.8.458v.257l-.8-.457v-.258z" fill="#A06060"/><path d="M76.16 144.059l.543.314v.257l-.543-.314v-.257z" fill="#8D89AB"/><path d="M77.504 139.911l1.43-.829c.8-.486 1.943-.429 3.172.285 2.459 1.43 4.46 4.86 4.46 7.719v8.806l-1.486.857v-8.805c0-2.83-2.002-6.289-4.46-7.719-1.2-.686-2.316-.743-3.116-.314zm11.264-6.49l1.429-.829c.8-.486 1.944-.429 3.173.286 2.459 1.429 4.46 4.86 4.46 7.719v8.805l-1.486.858v-8.806c0-2.83-2.002-6.289-4.46-7.719-1.201-.714-2.316-.771-3.116-.314z" fill="#C6C3DB"/><path d="M77.504 139.911l1.43-.829c.8-.486 1.943-.429 3.172.285 2.459 1.43 4.46 4.86 4.46 7.719v8.806l-1.486.857v-8.805c0-2.83-2.002-6.289-4.46-7.719-1.2-.686-2.316-.743-3.116-.314zm11.264-6.49l1.429-.829c.8-.486 1.944-.429 3.173.286 2.459 1.429 4.46 4.86 4.46 7.719v8.805l-1.486.858v-8.806c0-2.83-2.002-6.289-4.46-7.719-1.201-.714-2.316-.771-3.116-.314z" fill="url(#I)"/><path d="M97.83 141.826l-12.75 7.376v.257l12.75-7.376v-.257z" fill="#A06060"/><path d="M97.83 141.826l-1.487.858v.257l1.487-.858v-.257zm-11.292 6.519l-1.487.857v.258l1.487-.858v-.257z" fill="#8D89AB"/><path d="M84.536 148.89l.544.314v.257l-.544-.314v-.257z" fill="#8D89AB"/><path d="M93.084 144.027c0-.4-.229-.572-.543-.4l-2.03 1.172c-.286.171-.543.629-.543 1.029v1.43c0 .4.229.571.543.4l2.03-1.172c.286-.172.543-.629.543-1.03v-1.429z" fill="#B2AECD"/><path d="M92.398 143.627c0-.629-.4-.915-.858-.658-.486.286-.857 1.001-.857 1.658v3.031c0 .629.4.915.857.657.486-.286.858-1 .858-1.658v-3.03z" fill="#B2AECD"/><path d="M93.313 144.171c0-.401-.229-.572-.543-.401l-2.03 1.172c-.286.172-.543.629-.543 1.03v1.429c0 .4.228.572.543.4l2.03-1.172c.286-.171.543-.629.543-1.029v-1.429z" fill="#E6E4F3"/><path d="M92.627 143.77c0-.629-.4-.914-.858-.657-.486.286-.858 1-.858 1.658v3.03c0 .629.4.915.858.658.486-.286.858-1.001.858-1.658v-3.031z" fill="#E6E4F3"/><path d="M92.283 145.259c0-.315-.2-.458-.428-.315-.23.143-.43.515-.43.829v.887c0 .314.2.457.43.314.228-.143.428-.515.428-.829v-.886z" fill="#6A6589"/><path d="M77.532 154.406c.915-.514 2.373-.514 3.26 0 .914.515.914 1.373 0 1.887-.916.515-2.374.515-3.26 0-.915-.514-.915-1.372 0-1.887z" fill="#EBEAF4"/><path d="M77.132 154.406c.915-.514 2.373-.514 3.26 0 .914.515.914 1.373 0 1.887-.916.515-2.374.515-3.26 0-.886-.514-.886-1.372 0-1.887z" fill="#F5AC0E"/><path d="M81.077 154.606h-4.603v.744h4.603v-.744z" fill="#F5AC0E"/><path d="M77.132 153.636c.915-.515 2.373-.515 3.26 0 .914.515.914 1.372 0 1.887-.916.514-2.374.514-3.26 0-.886-.543-.886-1.372 0-1.887z" fill="#F3C864"/><path d="M77.732 153.978c.572-.314 1.487-.314 2.059 0 .571.315.571.858 0 1.201-.572.314-1.487.314-2.059 0-.572-.343-.572-.886 0-1.201z" fill="#F6B92B"/><path d="M77.132 153.636c.915-.515 2.373-.515 3.26 0 .914.515.914 1.372 0 1.887-.916.514-2.374.514-3.26 0-.886-.543-.886-1.372 0-1.887z" fill="url(#J)"/><path d="M99.603 147.802c.686-.4 1.801-.4 2.487 0 .686.4.686 1.058 0 1.43-.686.4-1.801.4-2.487 0-.686-.372-.686-1.03 0-1.43z" fill="#EBEAF4"/><path d="M99.317 147.802c.686-.4 1.801-.4 2.487 0 .686.4.686 1.058 0 1.43-.686.4-1.801.4-2.487 0-.686-.372-.686-1.03 0-1.43z" fill="#C6C3DB"/><path d="M102.347 147.977h-3.545v.571h3.545v-.571z" fill="#C6C3DB"/><path d="M99.317 147.231c.686-.4 1.801-.4 2.487 0 .686.4.686 1.058 0 1.429-.686.401-1.801.401-2.487 0-.686-.4-.686-1.029 0-1.429z" fill="#EDECF4"/><path d="M99.774 147.49c.429-.257 1.144-.257 1.573 0 .428.257.428.657 0 .915-.429.257-1.144.257-1.573 0-.429-.258-.429-.658 0-.915z" fill="#CFCCE1"/><path d="M99.317 147.231c.686-.4 1.801-.4 2.487 0 .686.4.686 1.058 0 1.429-.686.401-1.801.401-2.487 0-.686-.4-.686-1.029 0-1.429z" fill="url(#K)"/><path d="M78.333 123.96a2.745 2.745 0 1 0 0-5.49 2.745 2.745 0 0 0 0 5.49z" fill="#fff"/><path d="M35.05 160.24a2.26 2.26 0 1 0-.002-4.518 2.26 2.26 0 0 0 .002 4.518z" fill="#F8619A"/><path d="M13.293 95.515a2.573 2.573 0 1 0 0-5.146 2.573 2.573 0 0 0 0 5.146zm295.006 12.865a2.745 2.745 0 1 0 0-5.49 2.745 2.745 0 0 0 0 5.49z" fill="#fff"/><path d="M177.907 22.929a3.23 3.23 0 1 0 0-6.46 3.23 3.23 0 0 0 0 6.46z" fill="#FD5D9D"/><path d="M23.814 65.983a4.408 4.408 0 0 0 3.145 1.286 4.435 4.435 0 0 0 4.431-4.43 4.507 4.507 0 0 0-1.286-3.146l-1.572 1.573a2.202 2.202 0 1 1-3.116 3.116l-1.602 1.6z" fill="#B9A1FF"/><path d="M280.425 22.67a5.056 5.056 0 0 0 1.859 6.918 5.056 5.056 0 0 0 6.918-1.858l-2.716-1.572a1.953 1.953 0 0 1-2.63.714 1.954 1.954 0 0 1-.715-2.63l-2.716-1.572z" fill="#FF56AD"/><path d="M99.06 12.98s.343-5.547-.915-6.462c-1.344-.972-3.23.83-1.859 1.973 1.087.915 7.148.314 7.148.314" stroke="#fff" stroke-width="2.5" stroke-miterlimit="1.5" stroke-linecap="round" stroke-linejoin="round"/><path d="M77.933 7.748a1.03 1.03 0 1 0 0-2.059 1.03 1.03 0 0 0 0 2.059zm44.483 9.09a.514.514 0 1 0 .001-1.03.514.514 0 0 0-.001 1.03zM44.97 43.455a1.03 1.03 0 1 0 0-2.059 1.03 1.03 0 0 0 0 2.059zM.515 52.545a.515.515 0 1 0 0-1.03.515.515 0 0 0 0 1.03zM50.03 92.942a1.058 1.058 0 1 0 0-2.116 1.058 1.058 0 0 0 0 2.116zm-35.936 32.476a.658.658 0 1 0 0-1.316.658.658 0 0 0 0 1.316zm264.044-81.963a1.03 1.03 0 1 0 .001-2.06 1.03 1.03 0 0 0-.001 2.06zm-44.484 9.09a.514.514 0 1 0 .001-1.03.514.514 0 0 0-.001 1.03zm11.322 29.217a1.057 1.057 0 1 0 0-2.114 1.057 1.057 0 0 0 0 2.114zm-22.786 26.275a1.4 1.4 0 1 0 0-2.801 1.4 1.4 0 0 0 0 2.801zm75.017 24.386a1 1 0 1 0-.001-2.001 1 1 0 0 0 .001 2.001zM280.139 2.001a1 1 0 1 0 0-2.001 1 1 0 0 0 0 2.001z" fill="#fff"/><path d="M131.221 98.172c-5.975.2-12.064-1.03-16.638-3.66-8.519-4.917-8.519-12.893 0-17.81 8.519-4.918 22.328-4.918 30.847 0l41.539 23.985c8.52 4.918 8.52 12.894 0 17.811-8.519 4.917-22.328 4.917-30.847 0-4.574-2.63-6.69-6.146-6.347-9.606l-18.554-10.72z" fill="#9893CD" fill-opacity=".25"/><path d="M150.404 97.803a8.148 8.148 0 1 0 0-16.295 8.148 8.148 0 0 0 0 16.295z" fill="#5055FF" fill-opacity=".5"/><path d="M156.065 83.793c1.515 1.487 2.487 3.545 2.487 5.86 0 4.489-3.659 8.148-8.148 8.148-3.459 0-6.432-2.172-7.604-5.231 1.458 1.972 3.773 3.259 6.403 3.259 4.403 0 7.948-3.574 7.948-7.948a7.613 7.613 0 0 0-1.086-4.088z" fill="#3940E9" fill-opacity=".154"/><path d="M150.404 97.803a8.148 8.148 0 1 0 0-16.295 8.148 8.148 0 0 0 0 16.295z" fill="url(#L)"/><path d="M171.188 49.945c.858-.686.829-1.658-.057-2.173l-11.178-6.46c-.886-.515-2.316-.372-3.173.314l-1.058.857c-.858.687-.829 1.659.057 2.173l11.178 6.433c.886.514 2.316.371 3.173-.315l1.058-.829z" fill="#38364C"/><path d="M128.734 64.925c-6.346.743-12.922-.315-18.039-3.26-9.52-5.489-10.321-15.58-1.773-22.499 8.548-6.918 23.243-8.062 32.763-2.573l46.514 26.845c9.52 5.489 10.32 15.58 1.772 22.5-8.548 6.918-23.242 8.061-32.762 2.572-5.118-2.944-7.719-7.204-7.691-11.607l-20.784-11.978z" fill="#3D3B54"/><path d="M102.49 46.715l.657 5.146 92.713 22.242-.657-5.175-92.713-22.213z" fill="#3D3B54"/><path d="M141.056 31.534c9.52 5.49 10.321 15.58 1.773 22.5-8.548 6.918-23.243 8.061-32.763 2.572s-10.32-15.58-1.772-22.499c8.548-6.918 23.242-8.09 32.762-2.573zm46.514 26.845c9.52 5.489 10.32 15.58 1.772 22.499-8.548 6.918-23.242 8.062-32.762 2.573-9.52-5.49-10.321-15.581-1.773-22.5 8.548-6.918 23.243-8.062 32.763-2.572z" fill="#565470"/><path d="M187.57 58.377l-46.514-26.845-25.844 20.899 46.514 26.844 25.844-20.898z" fill="#565470"/><path d="M166.557 46.255l-4.46-2.573-1.172.972 4.46 2.573 1.172-.972z" fill="#38364C"/><path d="M128.077 59.836c-6.347.743-12.922-.315-18.04-3.26-9.52-5.488-10.32-15.58-1.772-22.498 8.548-6.919 23.242-8.063 32.762-2.574l46.542 26.874c9.52 5.489 10.321 15.58 1.773 22.499-8.548 6.918-23.243 8.062-32.763 2.573-5.117-2.945-7.718-7.204-7.69-11.607l-20.812-12.007z" fill="url(#M)"/><path d="M185.768 59.865c8.405 4.86 9.12 13.751 1.544 19.87-7.547 6.117-20.526 7.118-28.932 2.258-8.405-4.86-9.119-13.751-1.543-19.87 7.547-6.117 20.498-7.118 28.931-2.258z" fill="#38344C"/><path d="M185.768 59.865c8.405 4.86 9.12 13.751 1.544 19.87-7.547 6.117-20.526 7.118-28.932 2.258-8.405-4.86-9.119-13.751-1.543-19.87 7.547-6.117 20.498-7.118 28.931-2.258z" fill="url(#N)"/><path d="M134.481 36.992c5.403 3.116 5.86 8.834 1 12.75-4.86 3.917-13.179 4.575-18.582 1.459-5.403-3.117-5.861-8.834-1.001-12.75 4.86-3.918 13.18-4.575 18.583-1.459z" stroke="#fff" stroke-opacity=".5" stroke-width=".9" stroke-miterlimit="1.5" stroke-linecap="round" stroke-linejoin="round"/><path d="M134.337 36.966c5.404 3.116 5.861 8.834 1.001 12.75-4.86 3.917-13.179 4.575-18.582 1.458-5.404-3.116-5.861-8.834-1.001-12.75 4.86-3.917 13.179-4.574 18.582-1.458z" stroke="#38344C" stroke-width=".9" stroke-miterlimit="1.5" stroke-linecap="round" stroke-linejoin="round"/><path d="M141.542 57.92c.857-.058 1.515-.6 1.458-1.173-.057-.571-.772-1-1.63-.943l-4.946.4c-.857.057-1.515.6-1.458 1.172.058.572.772 1 1.63.944l4.946-.4z" fill="#38344C"/><path d="M135.281 57.32a1.431 1.431 0 0 1 1.315-1.515l4.574-.371c.801-.057 1.487.514 1.544 1.286v.029c.028.514-.572.972-1.344 1.029l-4.574.372c-.8.057-1.487-.315-1.515-.83z" fill="#fff"/><path d="M148.374 61.837c.858-.058 1.516-.6 1.458-1.173-.057-.571-.771-1-1.629-.943l-4.946.4c-.858.057-1.515.6-1.458 1.172.057.572.772 1 1.63.944l4.945-.4z" fill="#38344C"/><path d="M142.056 61.179a1.431 1.431 0 0 1 1.315-1.515l4.575-.372c.8-.057 1.486.515 1.543 1.286v.03c.029.514-.571.971-1.343 1.028l-4.575.372c-.8.057-1.458-.315-1.515-.83z" fill="#fff"/><path d="M176.477 69.64c2.773-.229 4.889-1.944 4.746-3.83-.143-1.916-2.516-3.26-5.289-3.06l-14.666 1.144c-2.773.228-4.889 1.944-4.746 3.83.143 1.916 2.516 3.26 5.289 3.06l14.666-1.144z" fill="#565470"/><path d="M178.936 63.982c1.658.972 1.801 2.716.314 3.945-1.486 1.23-4.059 1.401-5.746.458-1.658-.972-1.801-2.716-.314-3.945 1.515-1.23 4.059-1.43 5.746-.458zm-14.694 1.172c1.658.972 1.801 2.716.314 3.945-1.487 1.23-4.06 1.401-5.746.458-1.658-.972-1.801-2.716-.315-3.945 1.515-1.23 4.06-1.43 5.747-.458z" fill="#fff"/><path d="M182.852 77.96c2.773-.228 4.889-1.944 4.746-3.83-.143-1.916-2.516-3.26-5.289-3.06l-14.666 1.144c-2.773.229-4.888 1.944-4.746 3.83.143 1.916 2.516 3.26 5.289 3.06l14.666-1.144z" fill="#565470"/><path d="M185.311 72.301c1.658.972 1.801 2.716.314 3.945-1.486 1.201-4.059 1.401-5.746.458-1.658-.972-1.801-2.716-.314-3.945 1.515-1.201 4.088-1.401 5.746-.458zm-14.695 1.173c1.658.971 1.801 2.715.315 3.945-1.487 1.2-4.06 1.4-5.747.457-1.658-.972-1.801-2.716-.314-3.945 1.486-1.23 4.088-1.43 5.746-.457z" fill="#fff"/><path d="M170.788 73.33c1.773 1.029 1.916 2.916.315 4.202-1.601 1.287-4.346 1.515-6.118.486-1.773-1.03-1.915-2.916-.314-4.202 1.6-1.287 4.345-1.516 6.117-.486z" fill="#38344C"/><path d="M170.617 73.472c1.658.972 1.801 2.716.314 3.945-1.486 1.2-4.059 1.4-5.746.457-1.658-.972-1.801-2.716-.314-3.945 1.515-1.23 4.088-1.43 5.746-.457z" fill="#6F8DFA"/><path d="M163.698 75.072l.172 1.086 8.062-.914-.172-1.087-8.062.915z" fill="#6F8DFA"/><path d="M170.445 72.443c1.658.972 1.801 2.716.315 3.945-1.487 1.23-4.06 1.401-5.747.458-1.658-.972-1.801-2.716-.314-3.945 1.515-1.23 4.088-1.43 5.746-.458z" fill="#A2B6FD"/><path d="M185.483 72.157c1.772 1.029 1.915 2.916.314 4.202-1.601 1.287-4.345 1.516-6.118.486-1.772-1.029-1.915-2.916-.314-4.202 1.63-1.315 4.345-1.515 6.118-.486z" fill="#38344C"/><path d="M185.311 72.3c1.658.972 1.801 2.716.315 3.945-1.487 1.2-4.06 1.4-5.747.457-1.658-.972-1.801-2.716-.314-3.945 1.486-1.23 4.088-1.43 5.746-.457z" fill="#6F8DFA"/><path d="M178.393 73.902l.171 1.087 8.062-.944-.171-1.086-8.062.943z" fill="#6F8DFA"/><path d="M185.168 71.271c1.659.972 1.802 2.716.315 3.946-1.487 1.229-4.06 1.4-5.746.457-1.658-.972-1.801-2.716-.315-3.945 1.487-1.23 4.06-1.43 5.746-.458z" fill="#A2B6FD"/><path d="M179.108 63.837c1.772 1.03 1.915 2.916.314 4.203-1.601 1.286-4.345 1.515-6.118.486-1.772-1.03-1.915-2.916-.314-4.203 1.601-1.315 4.345-1.515 6.118-.485z" fill="#38344C"/><path d="M178.936 63.98c1.658.971 1.801 2.715.314 3.945-1.486 1.229-4.059 1.4-5.746.457-1.658-.972-1.801-2.716-.314-3.945 1.486-1.23 4.059-1.43 5.746-.458z" fill="#D1D4DD"/><path d="M172.018 65.582l.171 1.087 8.062-.944-.171-1.086-8.062.943z" fill="#D1D4DD"/><path d="M178.765 62.951c1.658.972 1.801 2.716.314 3.945-1.487 1.201-4.06 1.401-5.746.458-1.658-.972-1.801-2.716-.315-3.946 1.515-1.229 4.088-1.429 5.747-.457z" fill="#fff"/><path d="M164.413 64.954c1.772 1.029 1.915 2.916.314 4.202-1.601 1.287-4.345 1.515-6.118.486-1.772-1.03-1.915-2.916-.314-4.202 1.601-1.287 4.345-1.516 6.118-.486z" fill="#38344C"/><path d="M164.242 65.095c1.658.972 1.801 2.716.314 3.945-1.487 1.201-4.06 1.401-5.746.458-1.658-.972-1.801-2.716-.315-3.945 1.515-1.201 4.088-1.401 5.747-.458z" fill="#D1D4DD"/><path d="M164.242 64.981c1.658.972 1.801 2.716.314 3.946-1.487 1.2-4.06 1.4-5.746.457-1.658-.972-1.801-2.716-.315-3.945 1.515-1.23 4.06-1.43 5.747-.458zm-2.316-18.095c.572.343.629.943.114 1.372-.514.429-1.429.486-2.001.171-.572-.343-.629-.943-.114-1.372.514-.429 1.4-.515 2.001-.172z" fill="#fff"/><path d="M133.795 41.254c.514-.4.457-1-.115-1.315l-3.144-1.83c-.572-.315-1.43-.257-1.916.143l-11.121 8.977c-.514.4-.457 1 .115 1.315l3.144 1.83c.572.314 1.43.257 1.916-.143l11.121-8.977z" fill="#38344C"/><path d="M121.788 38.795c-.572-.315-1.43-.258-1.916.142l-2.83 2.288c-.515.4-.458 1 .114 1.315l12.379 7.147c.572.314 1.429.257 1.915-.143l2.831-2.287c.514-.4.457-1-.115-1.315l-12.378-7.147z" fill="#38344C"/><path d="M125.39 40.854l3.488-2.83c.514-.4 1.372-.486 1.915-.143l3.402 1.972c.572.315.6.915.114 1.316l-3.344 2.715 3.687 2.145c.572.314.601.914.115 1.315l-3.202 2.573c-.515.4-1.372.486-1.916.142l-3.687-2.144-3.231 2.602c-.515.4-1.372.486-1.915.143l-3.488-2.001c-.572-.315-.601-.915-.115-1.315l3.174-2.63-3.831-2.23c-.572-.315-.6-.915-.114-1.316l3.116-2.458c.514-.4 1.372-.486 1.915-.143l3.917 2.287z" fill="#3A3745"/><path d="M116.698 42.055c-.057-.2-.257-.944-.285-1.144-.058-.257.057-.543.343-.772l2.83-2.287c.515-.4 1.372-.486 1.915-.143l3.603 2.087 3.23-2.601c.515-.4 1.372-.486 1.915-.143l3.145 1.83c.258.142.4.342.429.543 0 .028.257.943.286 1.114.057.258-.086.515-.343.744l-2.573 2.058 2.659 1.544c.257.143.4.343.428.543.029.172.258.886.286 1.115.029.257-.057.515-.343.743l-2.83 2.288c-.515.4-1.372.486-1.915.142l-3.603-2.087-3.23 2.602c-.515.4-1.372.486-1.916.143l-3.144-1.83c-.229-.143-.372-.314-.429-.514-.057-.2-.257-.915-.286-1.115-.057-.258.057-.543.343-.772l2.573-2.059-2.659-1.543a.873.873 0 0 1-.429-.486z" fill="#D5D5DC"/><path d="M125.104 39.767l3.23-2.602c.515-.4 1.372-.486 1.916-.143l3.144 1.83c.572.315.601.915.115 1.315l-3.231 2.602 3.602 2.087c.572.314.601.914.115 1.315l-2.831 2.287c-.514.4-1.372.486-1.915.143l-3.602-2.087-3.231 2.601c-.514.4-1.372.486-1.915.143l-3.145-1.83c-.572-.314-.6-.914-.114-1.314l3.23-2.602-3.602-2.087c-.572-.314-.6-.915-.114-1.315l2.83-2.287c.515-.4 1.372-.486 1.915-.143l3.603 2.087z" fill="#fff"/><path d="M130.679 38.822l-3.659.686 3.316 1.916.343-2.602zm-3.917 3.201c.886.515.943 1.43.172 2.087-.772.63-2.145.744-3.031.229-.886-.515-.943-1.43-.171-2.087.8-.629 2.144-.743 3.03-.229zm-6.833 5.489l.372-2.572 3.316 1.915-3.688.657zm-.657-7.832l.772 2.488 2.944-2.373-3.716-.114zm12.236 7.061l-3.716-.114 2.944-2.373.772 2.487z" stroke="#D9DAE0" stroke-width=".6" stroke-miterlimit="1.5" stroke-linecap="round" stroke-linejoin="round"/><path d="M121.073 45.169c3.487 2.001 3.773 5.718.657 8.233-3.116 2.545-8.491 2.945-11.979.944-3.487-2.002-3.773-5.718-.657-8.234 3.145-2.544 8.491-2.973 11.979-.943z" fill="#38344C" fill-opacity=".25"/><path d="M109.923 40.225l.543 6.232.544 4.202-1.43 1.316m6.833-12.207l3.173 2.344.457 4.23 1.687.373" stroke="#F3448A" stroke-width="3" stroke-miterlimit="1.5" stroke-linecap="round" stroke-linejoin="round"/><path d="M112.953 41.626a9.206 9.206 0 1 0 0-18.412 9.206 9.206 0 0 0 0 18.412z" fill="#FD4F94"/><path d="M119.357 25.816c1.716 1.687 2.802 4.003 2.802 6.604a9.2 9.2 0 0 1-9.205 9.206 9.218 9.218 0 0 1-8.606-5.918 8.976 8.976 0 0 0 7.262 3.66 9.004 9.004 0 0 0 9.005-9.006 9.406 9.406 0 0 0-1.258-4.546z" fill="#E9397F" fill-opacity=".5"/><path d="M112.953 41.626a9.206 9.206 0 1 0 0-18.412 9.206 9.206 0 0 0 0 18.412z" fill="url(#O)"/><path d="M112.468 37.68c.857-.2 3.202-.772 4.145-1 .229 1-.486 2.03-1.629 2.287-1.144.257-2.259-.286-2.516-1.287z" fill="#891646"/><path d="M108.494 33.135a.802.802 0 1 1-.858.743c.029-.457.4-.8.858-.743zm10.778-1.66c.428.029.772.4.714.858a.762.762 0 0 1-.857.715.763.763 0 0 1-.715-.858c.057-.4.429-.743.858-.715z" fill="#fff"/><path d="M221.876 136.77c-.972-.572-2.459-.629-3.317-.143l-9.548 5.546c-.858.486-.743 1.343.229 1.915l2.258 1.287c.972.571 2.459.629 3.316.143l9.578-5.518c.857-.486.743-1.344-.229-1.915l-2.287-1.315z" fill="#E1E5F4"/><path d="M221.704 127.706l.286 5.889-1.486 4.889 2.144 1.258m-8.749-8.46l1.087 6.576-5.318-4.718-.2 2.488" stroke="#3E9FF5" stroke-width="2.5" stroke-miterlimit="1.5" stroke-linecap="round" stroke-linejoin="round"/><path d="M224.877 108.723c-.314-2.03-1.915-2.916-3.573-1.972l-10.892 6.289c-1.658.972-2.773 3.402-2.459 5.46l1.801 12.065c.315 2.058 1.916 2.916 3.574 1.972l10.892-6.289c1.658-.972 2.773-3.402 2.459-5.46l-1.802-12.065z" fill="#448ECF"/><path d="M225.449 109.038c-.314-2.058-1.915-2.916-3.573-1.972l-10.892 6.289c-1.658.972-2.773 3.402-2.459 5.461l1.801 12.064c.315 2.03 1.916 2.916 3.574 1.973l10.892-6.29c1.658-.972 2.773-3.402 2.459-5.46l-1.802-12.065z" fill="#65B7FF"/><path d="M225.449 109.038c-.314-2.058-1.915-2.916-3.573-1.972l-10.892 6.289c-1.658.972-2.773 3.402-2.459 5.461l1.801 12.064c.315 2.03 1.916 2.916 3.574 1.973l10.892-6.29c1.658-.972 2.773-3.402 2.459-5.46l-1.802-12.065z" fill="url(#P)"/><path d="M214.672 120.416c.428-.257.857 0 .943.543.086.572-.2 1.229-.629 1.458-.429.257-.858 0-.943-.543-.086-.543.2-1.201.629-1.458zm7.004-4.031c.428-.258.857 0 .943.543.086.572-.2 1.229-.629 1.458-.429.257-.858 0-.943-.543-.086-.544.2-1.201.629-1.458z" fill="#fff"/><path d="M219.703 125.504c1.001-.571 1.601-2.458 1.344-4.145-.258-1.715-3.946.4-3.66 2.116.258 1.715 1.315 2.63 2.316 2.029z" fill="#235C8F"/><path d="M154.407 118.217c2.544-1.486 6.718-1.486 9.262 0 2.545 1.487 2.545 3.86 0 5.347-2.544 1.486-6.718 1.486-9.262 0-2.545-1.487-2.545-3.888 0-5.347z" fill="#E6E4F3"/><path d="M151.491 116.617c4.288-2.458 11.235-2.458 15.495 0 4.288 2.459 4.288 6.49 0 8.949-4.289 2.458-11.236 2.458-15.495 0-4.26-2.459-4.26-6.49 0-8.949zm2.858 1.659c2.688-1.544 7.062-1.544 9.778 0 2.687 1.543 2.687 4.088 0 5.631-2.688 1.544-7.062 1.544-9.778 0-2.687-1.543-2.687-4.088 0-5.631zm15.295 7.172l5.032-1.401-2.973-3.431-2.059 4.832z" fill="#E6E4F3"/><path d="M151.491 115.759c4.288-2.459 11.235-2.459 15.495 0 4.288 2.459 4.288 6.49 0 8.948-4.289 2.459-11.236 2.459-15.495 0-4.26-2.458-4.26-6.461 0-8.948zm2.858 1.658c2.688-1.544 7.062-1.544 9.778 0 2.687 1.544 2.687 4.088 0 5.632-2.688 1.544-7.062 1.544-9.778 0-2.687-1.544-2.687-4.088 0-5.632z" fill="#5F87FF" fill-opacity=".73"/><path d="M151.491 115.759c4.288-2.459 11.235-2.459 15.495 0 4.288 2.459 4.288 6.49 0 8.948-4.289 2.459-11.236 2.459-15.495 0-4.26-2.458-4.26-6.461 0-8.948zm2.858 1.658c2.688-1.544 7.062-1.544 9.778 0 2.687 1.544 2.687 4.088 0 5.632-2.688 1.544-7.062 1.544-9.778 0-2.687-1.544-2.687-4.088 0-5.632z" fill="url(#Q)"/><path opacity=".73" d="M169.644 124.593l5.032-1.401-2.973-3.43-2.059 4.831z" fill="#5F87FF"/><path d="M153.892 114.101c2.859-1.658 7.49-1.658 10.32 0 2.859 1.658 2.859 4.317 0 5.975-2.859 1.658-7.49 1.658-10.32 0-2.859-1.658-2.859-4.345 0-5.975zm6.69-3.519a5.432 5.432 0 1 0 0-10.864 5.432 5.432 0 0 0 0 10.864z" fill="#fff"/><path d="M155.15 105.151c-.2 6.06-3.059 10.635-3.059 10.635l14.237 1.172s-.257-8.405-.343-11.522c-.057-2.687-10.778-2.172-10.835-.285z" fill="#fff"/><path d="M162.697 105.752c.343-.2.715 0 .829.401.115.4-.057.886-.4 1.086-.343.2-.715 0-.829-.4-.114-.429.057-.915.4-1.087zm2.43-1.999c.229-.115.458.143.544.572.085.428-.058.886-.258 1.029-.228.114-.457-.143-.543-.572-.086-.457.029-.915.257-1.029z" fill="#50505C"/><path d="M118.414 112.352a.702.702 0 0 0-.629-.028l-1.087.629c-.171.086-.142.257.058.371l5.088 2.945a.705.705 0 0 0 .629.029l1.087-.629c.171-.086.143-.258-.057-.372l-5.089-2.945z" fill="#EDEFF8"/><path d="M125.532 106.808c.115-.058.143-.229.115-.429a.932.932 0 0 0-.372-.543l-2.945-1.973-1.114-3.802a.904.904 0 0 0-.372-.515c-.114-.057-.229-.086-.286-.029l-1.287.744a.386.386 0 0 0-.085.114l-.629 1.372-2.144-1.057c-.115-.058-.2-.058-.258 0l-1.286.743c-.057.029-.086.057-.115.143-.057.143 0 .4.115.6l2.23 3.488-.686 2.916c-.029.172.028.4.171.6.143.201.315.315.458.286l2.515-.314 2.516 3.23c.143.172.315.286.458.258.028 0 .028 0 .057-.029l1.286-.743c.115-.057.143-.2.115-.4l-.658-3.488.915-.372h.028l1.258-.8z" fill="#F3A600"/><path d="M125.532 106.808c.115-.058.143-.229.115-.429a.932.932 0 0 0-.372-.543l-2.945-1.973-1.114-3.802a.904.904 0 0 0-.372-.515c-.114-.057-.229-.086-.286-.029l-1.287.744a.386.386 0 0 0-.085.114l-.629 1.372-2.144-1.057c-.115-.058-.2-.058-.258 0l-1.286.743c-.057.029-.086.057-.115.143-.057.143 0 .4.115.6l2.23 3.488-.686 2.916c-.029.172.028.4.171.6.143.201.315.315.458.286l2.515-.314 2.516 3.23c.143.172.315.286.458.258.028 0 .028 0 .057-.029l1.286-.743c.115-.057.143-.2.115-.4l-.658-3.488.915-.372h.028l1.258-.8z" fill="url(#R)"/><path d="M125.532 106.808c.115-.058.143-.229.115-.429a.932.932 0 0 0-.372-.543l-2.945-1.973-1.114-3.802a.904.904 0 0 0-.372-.515c-.114-.057-.229-.086-.286-.029l-1.287.744a.386.386 0 0 0-.085.114l-.629 1.372-2.144-1.057c-.115-.058-.2-.058-.258 0l-1.286.743c-.057.029-.086.057-.115.143-.057.143 0 .4.115.6l2.23 3.488-.686 2.916c-.029.172.028.4.171.6.143.201.315.315.458.286l2.515-.314 2.516 3.23c.143.172.315.286.458.258.028 0 .028 0 .057-.029l1.286-.743c.115-.057.143-.2.115-.4l-.658-3.488.915-.372h.028l1.258-.8z" fill="url(#S)"/><path d="M119.929 100.831a.9.9 0 0 0-.371-.514c-.172-.086-.315-.057-.372.086l-1.115 2.487-2.945-1.43c-.171-.085-.314-.028-.371.115-.057.143 0 .4.114.6l2.23 3.488-.686 2.916c-.029.171.028.4.171.6.143.2.315.315.458.286l2.516-.314 2.515 3.23c.143.172.315.286.458.257.143-.028.2-.2.171-.4l-.686-3.688 2.23-.915c.114-.057.172-.228.114-.428a.941.941 0 0 0-.371-.544l-2.945-1.972-1.115-3.86z" fill="#FFCC24"/><path d="M119.929 100.831a.9.9 0 0 0-.371-.514c-.172-.086-.315-.057-.372.086l-1.115 2.487-2.945-1.43c-.171-.085-.314-.028-.371.115-.057.143 0 .4.114.6l2.23 3.488-.686 2.916c-.029.171.028.4.171.6.143.2.315.315.458.286l2.516-.314 2.515 3.23c.143.172.315.286.458.257.143-.028.2-.2.171-.4l-.686-3.688 2.23-.915c.114-.057.172-.228.114-.428a.941.941 0 0 0-.371-.544l-2.945-1.972-1.115-3.86z" fill="url(#T)"/><path d="M192.859 121.502a.699.699 0 0 1 .629-.029l1.086.629c.171.086.143.257-.057.372l-5.089 2.944a.699.699 0 0 1-.629.029l-1.086-.629c-.172-.086-.143-.257.057-.372l5.089-2.944z" fill="#EDEFF8"/><path d="M185.711 115.955c-.114-.057-.143-.229-.114-.429a.935.935 0 0 1 .372-.543l2.944-1.973 1.115-3.802a.895.895 0 0 1 .372-.514c.114-.058.228-.086.286-.029l1.286.743a.393.393 0 0 1 .086.115l.629 1.372 2.144-1.058c.114-.057.2-.057.257 0l1.287.743c.057.029.086.058.114.143.057.143 0 .401-.114.601l-2.23 3.487.686 2.917c.029.171-.029.4-.172.6-.143.2-.314.314-.457.286l-2.516-.315-2.516 3.231c-.143.171-.314.286-.457.257-.029 0-.029 0-.057-.028l-1.287-.744c-.114-.057-.143-.2-.114-.4l.658-3.488-.915-.371h-.029l-1.258-.801z" fill="#B6BCD9" fill-opacity=".5"/><path d="M191.344 109.982a.9.9 0 0 1 .371-.515c.172-.086.315-.057.372.086l1.115 2.487 2.945-1.429c.171-.086.314-.029.371.114.057.143 0 .4-.114.6l-2.23 3.488.686 2.916c.029.172-.029.401-.171.601-.143.2-.315.314-.458.286l-2.516-.315-2.515 3.231c-.143.171-.315.285-.458.257-.143-.029-.2-.2-.171-.4l.686-3.688-2.23-.915c-.115-.057-.172-.229-.115-.429a.941.941 0 0 1 .372-.543l2.945-1.973 1.115-3.859z" fill="#fff" fill-opacity=".5"/><path d="M234.083 147.117a.705.705 0 0 1 .629-.029l1.086.629c.172.086.143.258-.057.372l-5.088 2.945a.702.702 0 0 1-.629.028l-1.087-.629c-.171-.085-.143-.257.057-.371l5.089-2.945z" fill="#EDEFF8"/><path d="M226.936 141.572c-.114-.057-.143-.228-.114-.429a.942.942 0 0 1 .371-.543l2.945-1.972 1.115-3.803a.898.898 0 0 1 .372-.514c.114-.057.228-.086.286-.029l1.286.743a.408.408 0 0 1 .086.115l.629 1.372 2.144-1.058c.114-.057.2-.057.257 0l1.287.744c.057.028.086.057.114.143.057.142 0 .4-.114.6l-2.23 3.488.686 2.916c.029.171-.029.4-.172.6-.143.2-.314.315-.457.286l-2.516-.315-2.516 3.231c-.143.172-.314.286-.457.257-.029 0-.029 0-.057-.028l-1.287-.744c-.114-.057-.143-.2-.114-.4l.658-3.488-.915-.371h-.029l-1.258-.801z" fill="#F3A600"/><path d="M226.936 141.572c-.114-.057-.143-.228-.114-.429a.942.942 0 0 1 .371-.543l2.945-1.972 1.115-3.803a.898.898 0 0 1 .372-.514c.114-.057.228-.086.286-.029l1.286.743a.408.408 0 0 1 .086.115l.629 1.372 2.144-1.058c.114-.057.2-.057.257 0l1.287.744c.057.028.086.057.114.143.057.142 0 .4-.114.6l-2.23 3.488.686 2.916c.029.171-.029.4-.172.6-.143.2-.314.315-.457.286l-2.516-.315-2.516 3.231c-.143.172-.314.286-.457.257-.029 0-.029 0-.057-.028l-1.287-.744c-.114-.057-.143-.2-.114-.4l.658-3.488-.915-.371h-.029l-1.258-.801z" fill="url(#U)"/><path d="M226.936 141.572c-.114-.057-.143-.228-.114-.429a.942.942 0 0 1 .371-.543l2.945-1.972 1.115-3.803a.898.898 0 0 1 .372-.514c.114-.057.228-.086.286-.029l1.286.743a.408.408 0 0 1 .086.115l.629 1.372 2.144-1.058c.114-.057.2-.057.257 0l1.287.744c.057.028.086.057.114.143.057.142 0 .4-.114.6l-2.23 3.488.686 2.916c.029.171-.029.4-.172.6-.143.2-.314.315-.457.286l-2.516-.315-2.516 3.231c-.143.172-.314.286-.457.257-.029 0-.029 0-.057-.028l-1.287-.744c-.114-.057-.143-.2-.114-.4l.658-3.488-.915-.371h-.029l-1.258-.801z" fill="url(#V)"/><path d="M232.568 135.596a.9.9 0 0 1 .372-.515c.171-.085.314-.057.371.086l1.115 2.487 2.945-1.429c.172-.086.315-.029.372.114.057.143 0 .401-.115.601l-2.23 3.488.687 2.916c.028.171-.029.4-.172.6-.143.2-.314.314-.457.286l-2.516-.315-2.516 3.231c-.143.171-.314.286-.457.257-.143-.028-.201-.2-.172-.4l.686-3.688-2.23-.915c-.114-.057-.171-.229-.114-.429a.935.935 0 0 1 .372-.543l2.944-1.973 1.115-3.859z" fill="#FFCC24"/><path d="M232.568 135.596a.9.9 0 0 1 .372-.515c.171-.085.314-.057.371.086l1.115 2.487 2.945-1.429c.172-.086.315-.029.372.114.057.143 0 .401-.115.601l-2.23 3.488.687 2.916c.028.171-.029.4-.172.6-.143.2-.314.314-.457.286l-2.516-.315-2.516 3.231c-.143.171-.314.286-.457.257-.143-.028-.201-.2-.172-.4l.686-3.688-2.23-.915c-.114-.057-.171-.229-.114-.429a.935.935 0 0 1 .372-.543l2.944-1.973 1.115-3.859z" fill="url(#W)"/><defs><linearGradient id="a" x1="198.103" y1="71.638" x2="198.103" y2="61.11" gradientUnits="userSpaceOnUse"><stop stop-color="#fff"/><stop offset="1" stop-color="#fff" stop-opacity="0"/></linearGradient><linearGradient id="b" x1="195.408" y1="49.528" x2="192.481" y2="50.292" gradientUnits="userSpaceOnUse"><stop stop-color="#FFE19B"/><stop offset="1" stop-color="#FFE19B" stop-opacity="0"/></linearGradient><linearGradient id="c" x1="201.895" y1="44.63" x2="198.172" y2="51.683" gradientUnits="userSpaceOnUse"><stop stop-color="#EFC7C7"/><stop offset="1" stop-color="#EFC7C7" stop-opacity="0"/></linearGradient><linearGradient id="d" x1="199.574" y1="45.29" x2="196.721" y2="51.837" gradientUnits="userSpaceOnUse"><stop stop-color="#fff"/><stop offset="1" stop-color="#fff" stop-opacity="0"/></linearGradient><linearGradient id="e" x1="204.416" y1="54.602" x2="201.489" y2="55.367" gradientUnits="userSpaceOnUse"><stop stop-color="#FFE19B"/><stop offset="1" stop-color="#FFE19B" stop-opacity="0"/></linearGradient><linearGradient id="f" x1="193.711" y1="51.58" x2="191.472" y2="52.164" gradientUnits="userSpaceOnUse"><stop stop-color="#fff"/><stop offset="1" stop-color="#fff" stop-opacity="0"/></linearGradient><linearGradient id="g" x1="219.459" y1="169.413" x2="221.037" y2="107.819" gradientUnits="userSpaceOnUse"><stop stop-color="#CCD3F6" stop-opacity="0"/><stop offset="1" stop-color="#CCD3F6"/></linearGradient><linearGradient id="h" x1="87.461" y1="101.487" x2="87.461" y2="71.112" gradientUnits="userSpaceOnUse"><stop stop-color="#EDEEFD"/><stop offset="1" stop-color="#EDEEFD" stop-opacity="0"/></linearGradient><linearGradient id="i" x1="87.469" y1="82.078" x2="87.469" y2="97.347" gradientUnits="userSpaceOnUse"><stop stop-color="#CCD3F6"/><stop offset="1" stop-color="#CCD3F6" stop-opacity="0"/></linearGradient><linearGradient id="j" x1="84.537" y1="79.27" x2="89.638" y2="79.27" gradientUnits="userSpaceOnUse"><stop stop-color="#EFF1FD" stop-opacity=".75"/><stop offset="1" stop-color="#EFF1FD" stop-opacity="0"/></linearGradient><linearGradient id="k" x1="64" y1="139" x2="64" y2="97" gradientUnits="userSpaceOnUse"><stop stop-color="#CCD3F6" stop-opacity="0"/><stop offset="1" stop-color="#CCD3F6"/></linearGradient><linearGradient id="l" x1="58.397" y1="138.381" x2="58.792" y2="113.256" gradientUnits="userSpaceOnUse"><stop stop-color="#CCD3F6" stop-opacity="0"/><stop offset="1" stop-color="#CCD3F6"/></linearGradient><linearGradient id="m" x1="63.116" y1="85.019" x2="58.201" y2="93.425" gradientUnits="userSpaceOnUse"><stop stop-color="#fff"/><stop offset="1" stop-color="#fff" stop-opacity="0"/></linearGradient><linearGradient id="n" x1="148.664" y1="179.965" x2="148.871" y2="135.911" gradientUnits="userSpaceOnUse"><stop stop-color="#CCD3F6" stop-opacity="0"/><stop offset="1" stop-color="#CCD3F6"/></linearGradient><linearGradient id="o" x1="190.796" y1="97.138" x2="107.205" y2="97.138" gradientUnits="userSpaceOnUse"><stop stop-color="#BDC4E8"/><stop offset="1" stop-color="#BDC4E8" stop-opacity="0"/></linearGradient><linearGradient id="p" x1="119.809" y1="105.69" x2="177.568" y2="105.69" gradientUnits="userSpaceOnUse"><stop stop-color="#fff"/><stop offset="1" stop-color="#fff" stop-opacity="0"/></linearGradient><linearGradient id="q" x1="266.446" y1="161.924" x2="266.446" y2="126.299" gradientUnits="userSpaceOnUse"><stop stop-color="#fff"/><stop offset="1" stop-color="#fff" stop-opacity="0"/></linearGradient><linearGradient id="r" x1="270.601" y1="109.187" x2="266.26" y2="116.613" gradientUnits="userSpaceOnUse"><stop stop-color="#fff"/><stop offset="1" stop-color="#fff" stop-opacity="0"/></linearGradient><linearGradient id="s" x1="179.398" y1="121.836" x2="190.099" y2="161.45" gradientUnits="userSpaceOnUse"><stop stop-color="#A1AAD3"/><stop offset="1" stop-color="#A1AAD3" stop-opacity="0"/></linearGradient><linearGradient id="t" x1="185.815" y1="133.54" x2="205.827" y2="175.147" gradientUnits="userSpaceOnUse"><stop stop-color="#9FA8D4"/><stop offset="1" stop-color="#9FA8D4" stop-opacity="0"/></linearGradient><linearGradient id="u" x1="206.193" y1="142.785" x2="229.711" y2="187.177" gradientUnits="userSpaceOnUse"><stop stop-color="#9FA8D4"/><stop offset="1" stop-color="#9FA8D4" stop-opacity="0"/></linearGradient><linearGradient id="v" x1="229.989" y1="156.23" x2="253.507" y2="200.622" gradientUnits="userSpaceOnUse"><stop stop-color="#9FA8D4"/><stop offset="1" stop-color="#9FA8D4" stop-opacity="0"/></linearGradient><linearGradient id="w" x1="158.207" y1="147.169" x2="222.542" y2="184.313" gradientUnits="userSpaceOnUse"><stop stop-color="#CCD2F2"/><stop offset="1" stop-color="#CCD2F2" stop-opacity="0"/></linearGradient><linearGradient id="x" x1="215.641" y1="195.022" x2="226.423" y2="174.579" gradientUnits="userSpaceOnUse"><stop stop-color="#FBFCFE"/><stop offset="1" stop-color="#FBFCFE" stop-opacity="0"/></linearGradient><linearGradient id="y" x1="16.594" y1="138.161" x2="19.202" y2="125.341" gradientUnits="userSpaceOnUse"><stop stop-color="#FFA72A"/><stop offset="1" stop-color="#FFA72A" stop-opacity="0"/></linearGradient><linearGradient id="z" x1="27.02" y1="117.025" x2="18.97" y2="125.301" gradientUnits="userSpaceOnUse"><stop stop-color="#FFF9A3" stop-opacity=".5"/><stop offset="1" stop-color="#FFF9A3" stop-opacity="0"/></linearGradient><linearGradient id="A" x1="31.92" y1="105.157" x2="15.82" y2="134.962" gradientUnits="userSpaceOnUse"><stop stop-color="#FFF9A3"/><stop offset="1" stop-color="#FFF9A3" stop-opacity="0"/></linearGradient><linearGradient id="B" x1="149.094" y1="232.633" x2="149.094" y2="183.286" gradientUnits="userSpaceOnUse"><stop stop-color="#fff"/><stop offset="1" stop-color="#fff" stop-opacity="0"/></linearGradient><linearGradient id="C" x1="143.363" y1="159.574" x2="149.377" y2="169.86" gradientUnits="userSpaceOnUse"><stop stop-color="#fff"/><stop offset="1" stop-color="#fff" stop-opacity="0"/></linearGradient><linearGradient id="D" x1="142.384" y1="144.741" x2="152.686" y2="155.25" gradientUnits="userSpaceOnUse"><stop stop-color="#FE7FB3"/><stop offset="1" stop-color="#FE7FB3" stop-opacity="0"/></linearGradient><linearGradient id="E" x1="145.149" y1="144.714" x2="150.57" y2="155.053" gradientUnits="userSpaceOnUse"><stop stop-color="#FE96C1"/><stop offset="1" stop-color="#FE96C1" stop-opacity="0"/></linearGradient><linearGradient id="F" x1="88.397" y1="189.74" x2="88.397" y2="167.416" gradientUnits="userSpaceOnUse"><stop stop-color="#fff"/><stop offset="1" stop-color="#fff" stop-opacity="0"/></linearGradient><linearGradient id="G" x1="94.121" y1="142.817" x2="100.327" y2="144.437" gradientUnits="userSpaceOnUse"><stop stop-color="#FFE19B"/><stop offset="1" stop-color="#FFE19B" stop-opacity="0"/></linearGradient><linearGradient id="H" x1="80.316" y1="132.451" x2="88.211" y2="147.406" gradientUnits="userSpaceOnUse"><stop stop-color="#EFC7C7"/><stop offset="1" stop-color="#EFC7C7" stop-opacity="0"/></linearGradient><linearGradient id="I" x1="85.249" y1="133.903" x2="91.297" y2="147.786" gradientUnits="userSpaceOnUse"><stop stop-color="#fff"/><stop offset="1" stop-color="#fff" stop-opacity="0"/></linearGradient><linearGradient id="J" x1="75.018" y1="153.572" x2="81.224" y2="155.193" gradientUnits="userSpaceOnUse"><stop stop-color="#FFE19B"/><stop offset="1" stop-color="#FFE19B" stop-opacity="0"/></linearGradient><linearGradient id="K" x1="97.686" y1="147.195" x2="102.433" y2="148.435" gradientUnits="userSpaceOnUse"><stop stop-color="#fff"/><stop offset="1" stop-color="#fff" stop-opacity="0"/></linearGradient><linearGradient id="L" x1="140.749" y1="80.064" x2="154.218" y2="93.411" gradientUnits="userSpaceOnUse"><stop stop-color="#fff"/><stop offset="1" stop-color="#fff" stop-opacity="0"/></linearGradient><linearGradient id="M" x1="126.287" y1="12.527" x2="155.878" y2="71.59" gradientUnits="userSpaceOnUse"><stop stop-color="#D6D8FF" stop-opacity=".5"/><stop offset="1" stop-color="#D6D8FF" stop-opacity="0"/></linearGradient><linearGradient id="N" x1="159.495" y1="60.297" x2="184.628" y2="81.548" gradientUnits="userSpaceOnUse"><stop stop-color="#4D4B69"/><stop offset="1" stop-color="#4D4B69" stop-opacity="0"/></linearGradient><linearGradient id="O" x1="102.036" y1="21.615" x2="117.257" y2="36.698" gradientUnits="userSpaceOnUse"><stop stop-color="#FE7CB1"/><stop offset="1" stop-color="#FE7CB1" stop-opacity="0"/></linearGradient><linearGradient id="P" x1="228.979" y1="136.166" x2="212.217" y2="111.64" gradientUnits="userSpaceOnUse"><stop stop-color="#2794F3"/><stop offset="1" stop-color="#2794F3" stop-opacity="0"/></linearGradient><linearGradient id="Q" x1="136.707" y1="114.909" x2="174.524" y2="123.816" gradientUnits="userSpaceOnUse"><stop stop-color="#fff" stop-opacity=".25"/><stop offset="1" stop-color="#fff" stop-opacity="0"/></linearGradient><linearGradient id="R" x1="122.206" y1="114.061" x2="120.678" y2="106.547" gradientUnits="userSpaceOnUse"><stop stop-color="#FFA72A"/><stop offset="1" stop-color="#FFA72A" stop-opacity="0"/></linearGradient><linearGradient id="S" x1="116.081" y1="101.667" x2="120.8" y2="106.517" gradientUnits="userSpaceOnUse"><stop stop-color="#FFF9A3" stop-opacity=".5"/><stop offset="1" stop-color="#FFF9A3" stop-opacity="0"/></linearGradient><linearGradient id="T" x1="113.223" y1="94.714" x2="122.66" y2="112.184" gradientUnits="userSpaceOnUse"><stop stop-color="#FFF9A3"/><stop offset="1" stop-color="#FFF9A3" stop-opacity="0"/></linearGradient><linearGradient id="U" x1="230.282" y1="148.833" x2="231.811" y2="141.318" gradientUnits="userSpaceOnUse"><stop stop-color="#FFA72A"/><stop offset="1" stop-color="#FFA72A" stop-opacity="0"/></linearGradient><linearGradient id="V" x1="236.408" y1="136.438" x2="231.689" y2="141.289" gradientUnits="userSpaceOnUse"><stop stop-color="#FFF9A3" stop-opacity=".5"/><stop offset="1" stop-color="#FFF9A3" stop-opacity="0"/></linearGradient><linearGradient id="W" x1="239.267" y1="129.485" x2="229.83" y2="146.956" gradientUnits="userSpaceOnUse"><stop stop-color="#FFF9A3"/><stop offset="1" stop-color="#FFF9A3" stop-opacity="0"/></linearGradient></defs></svg>