<svg width="128" height="28" viewBox="0 0 128 28" fill="none" xmlns="http://www.w3.org/2000/svg"><path d="M24.007 0H3.993A3.993 3.993 0 0 0 0 3.993v20.014A3.993 3.993 0 0 0 3.993 28h20.014A3.993 3.993 0 0 0 28 24.007V3.993A3.993 3.993 0 0 0 24.007 0z" fill="#3DADFF"/><path d="M5.477 12.49a1.484 1.484 0 1 0 0-2.969 1.484 1.484 0 0 0 0 2.97zm17.046 0a1.484 1.484 0 1 0 0-2.968 1.484 1.484 0 0 0 0 2.968z" fill="#fff"/><path d="M50 28c7.732 0 14-6.268 14-14S57.732 0 50 0 36 6.268 36 14s6.268 14 14 14z" fill="#FF0069"/><path d="M60.147 16.585a10.463 10.463 0 0 1-10.136 7.78c-4.76 0-8.907-3.173-10.135-7.78" stroke="#fff" stroke-miterlimit="22.926"/><path d="M41.514 12.49a1.484 1.484 0 1 0 0-2.968 1.484 1.484 0 0 0 0 2.968zm16.994 0a1.485 1.485 0 1 0 0-2.969 1.485 1.485 0 0 0 0 2.97z" fill="#fff"/><path d="M127.473 4.287l-.011.032a2.535 2.535 0 0 0-.687-.795c-1.226-.938-3.048-.625-4.061.691l-9.506 12.418 1.963-4.255V6.04c0-1.659-1.26-3.017-2.802-3.017-1.545 0-2.804 1.358-2.804 3.017v16.036c0 .578.151 1.119.417 1.573l.005-.015c.176.331.417.638.732.875 1.222.935 3.049.623 4.062-.696l9.291-12.145-1.68 3.653v6.755c0 1.665 1.262 3.02 2.798 3.02 1.544 0 2.81-1.355 2.81-3.02V6.04c0-.654-.196-1.256-.527-1.754zM84.44 14.337l-2.9 1.828 8.236-8.25c1.177-1.175 1.24-3.028.156-4.116-1.096-1.09-2.946-1.026-4.122.152l-8.198 8.2v-6.11c0-1.659-1.264-3.017-2.805-3.017C73.263 3.024 72 4.382 72 6.04v16.035c0 1.666 1.263 3.02 2.807 3.02 1.541 0 2.805-1.354 2.805-3.02V20.1l2.327-2.334 6.4 6.403c1.176 1.173 3.032 1.244 4.121.157 1.093-1.097 1.02-2.947-.15-4.122l-5.87-5.868zm20.61-5.705c1.661 0 3.017-1.266 3.017-2.806 0-1.542-1.356-2.802-3.017-2.802h-7.636a7.1 7.1 0 0 0-1.42.233h-.003c-.013.007-.026.015-.04.016a1.423 1.423 0 0 0-.155.046c-.04.013-.076.022-.119.04a1.715 1.715 0 0 0-.149.05c-.035.015-.075.026-.114.042l-.14.06c-.037.014-.073.027-.103.044-.006.001-.013.004-.02.004-2.373 1.08-2.94 3.445-3.05 4.89v11.223c.11 1.444.677 3.81 3.05 4.883.007.007.014.007.02.011.03.017.066.028.102.043.048.024.094.04.142.058.038.018.078.028.113.044.047.019.096.033.15.051.042.014.078.027.118.038.052.017.103.032.155.045a.207.207 0 0 0 .04.015l.004-.004c.423.122.897.204 1.419.24h7.636c1.661 0 3.017-1.26 3.017-2.803s-1.356-2.805-3.017-2.805h-7.344v-2.591c.067.004.13.005.197.005h5.971c1.656 0 3.016-1.26 3.016-2.805 0-1.543-1.36-2.803-3.016-2.803h-5.971c-.066 0-.13.002-.197.003V8.633h7.344z" fill="#3DADFF"/><path d="M120.306 3.533c0 .85-.685 1.539-1.531 1.539a1.536 1.536 0 0 1 0-3.072c.846 0 1.531.688 1.531 1.533z" fill="#3DADFF"/></svg>