<svg width="159" height="144" viewBox="0 0 159 144" fill="none" xmlns="http://www.w3.org/2000/svg"><path d="M66 33c0-9.4-3.2-17.2-9.4-23.6C50.2 3.2 42.4 0 33 0 23.4 0 15.6 3.2 9.4 9.4 3 15.8 0 23.6 0 33v4c0 9.6 3 17.4 9.4 23.6C15.6 67 23.4 70 33 70c9.4 0 17.2-3 23.6-9.4 6.2-6.2 9.4-14 9.4-23.6v-4zM33 60c-6.6 0-12-2.2-16.4-6.6C12.2 49 10 43.6 10 37v-4c0-6.4 2.2-12 6.6-16.4C21 12.2 26.4 10 33 10c6.4 0 12 2.2 16.4 6.6C53.8 21 56 26.6 56 33v4c0 6.6-2.2 12-6.6 16.4C45 57.8 39.4 60 33 60zm126 47c0-9.4-3.2-17.2-9.4-23.6-6.4-6.2-14.2-9.4-23.6-9.4-9.6 0-17.4 3.2-23.6 9.4C96 89.8 93 97.6 93 107v4c0 9.6 3 17.4 9.4 23.6 6.2 6.4 14 9.4 23.6 9.4 9.4 0 17.2-3 23.6-9.4 6.2-6.2 9.4-14 9.4-23.6v-4zm-33 27c-6.6 0-12-2.2-16.4-6.6-4.4-4.4-6.6-9.8-6.6-16.4v-4c0-6.4 2.2-12 6.6-16.4 4.4-4.4 9.8-6.6 16.4-6.6 6.4 0 12 2.2 16.4 6.6 4.4 4.4 6.6 10 6.6 16.4v4c0 6.6-2.2 12-6.6 16.4-4.4 4.4-10 6.6-16.4 6.6zm3-122c2-2.6 3-4.6 3-6 0-3.2-1.8-5-5-5-1.8 0-3.8 1.8-6 5L30 132c-2 2.8-3 4.8-3 6 0 3.4 1.6 5 5 5 1.6 0 3.6-1.6 6-5l91-126z" fill="#F13864"/></svg>