<svg width="41" height="63" viewBox="0 0 41 63" fill="none" xmlns="http://www.w3.org/2000/svg"><path d="M14.18 39.432c.039-.543-.393-1.05-.983-1.086-.589-.036-1.139.362-1.178.905L9.662 62.5h6.952c.59 0 1.1-.435 1.1-1.014 0-.543-.471-1.014-1.1-1.014h-4.556l2.16-21.076-.039.036zm9.21-3.989c.035-.561-.354-1.085-.884-1.122a1.004 1.004 0 0 0-1.06.935L19.325 59.28h6.257c.53 0 .99-.449.99-1.047 0-.562-.425-1.048-.99-1.048H21.48l1.944-21.778-.035.037z" fill="#F13864"/><path d="M20.13 40.76C9.012 40.76 0 31.747 0 20.63 0 9.512 9.012.5 20.13.5c11.117 0 20.13 9.012 20.13 20.13 0 11.117-9.013 20.13-20.13 20.13z" fill="#F13864"/><path d="M35.286 29.172c.296-.476.111-1.097-.371-1.389-.483-.292-1.113-.11-1.41.365a14.88 14.88 0 0 1-5.49 5.408c-2.226 1.279-4.823 1.973-7.494 1.973a15.345 15.345 0 0 1-9.126-3.033 14.677 14.677 0 0 1-5.343-7.892c-.148-.548-.704-.84-1.26-.73-.557.146-.854.694-.743 1.242a16.81 16.81 0 0 0 6.084 8.952 17.1 17.1 0 0 0 10.35 3.47 16.96 16.96 0 0 0 8.496-2.264 16.897 16.897 0 0 0 6.233-6.139l.074.037zm-9.8-14.148a1.424 1.424 0 1 0-.736-2.75 1.424 1.424 0 0 0 .736 2.75zm4.806-1.288a1.424 1.424 0 1 0-.737-2.75 1.424 1.424 0 0 0 .737 2.75z" fill="#fff"/></svg>