<svg width="41" height="62" viewBox="0 0 41 62" fill="none" xmlns="http://www.w3.org/2000/svg"><path d="M26.08 38.932c-.039-.543.393-1.05.982-1.086.59-.036 1.14.362 1.179.905L30.597 62h-6.952c-.589 0-1.1-.435-1.1-1.014 0-.543.472-1.014 1.1-1.014h4.556l-2.16-21.076.04.036zm-9.21-3.989c-.036-.561.353-1.085.883-1.122a1.004 1.004 0 0 1 1.061.935l2.121 24.023h-6.257c-.53 0-.99-.449-.99-1.047 0-.562.424-1.048.99-1.048h4.1l-1.944-21.778.036.037z" fill="#F13864"/><path d="M20.13 40.26c11.117 0 20.13-9.013 20.13-20.13C40.26 9.012 31.247 0 20.13 0 9.012 0 0 9.012 0 20.13c0 11.117 9.012 20.13 20.13 20.13z" fill="#F13864"/><path d="M4.974 28.672c-.297-.476-.111-1.097.371-1.389.482-.292 1.113-.11 1.41.365a14.879 14.879 0 0 0 5.49 5.408c2.226 1.279 4.823 1.973 7.494 1.973 3.376 0 6.567-1.132 9.126-3.033a14.677 14.677 0 0 0 5.342-7.892c.149-.548.705-.84 1.262-.73.556.146.853.694.742 1.242a16.81 16.81 0 0 1-6.084 8.952 17.1 17.1 0 0 1-10.35 3.47c-3.043 0-5.974-.803-8.496-2.264a16.896 16.896 0 0 1-6.233-6.139l-.074.037zm9.799-14.148a1.424 1.424 0 1 1 .737-2.75 1.424 1.424 0 0 1-.737 2.75zm-4.805-1.288a1.424 1.424 0 1 1 .737-2.75 1.424 1.424 0 0 1-.737 2.75z" fill="#fff"/></svg>